<svg width="512" height="512" viewBox="0 0 512 512" fill="none" xmlns="http://www.w3.org/2000/svg">
<g clip-path="url(#clip0_4_244)">
<mask id="mask0_4_244" style="mask-type:luminance" maskUnits="userSpaceOnUse" x="0" y="0" width="512" height="512">
<path d="M512 0H0V512H512V0Z" fill="white"/>
</mask>
<g mask="url(#mask0_4_244)">
<path d="M55.8803 16.936C55.8803 16.936 53.1833 73.732 7.69531 75.444C7.69531 75.444 53.5023 71.998 57.2103 150.12C57.2103 150.12 50.3753 77.877 102.121 75.773C102.121 75.773 62.8013 77.579 55.8803 16.936Z" fill="#FFFED7"/>
<path d="M55.8803 16.936C55.8803 16.936 53.1833 73.732 7.69531 75.444C7.69531 75.444 53.5023 71.998 57.2103 150.12C57.2103 150.12 50.3753 77.877 102.121 75.773C102.121 75.773 62.8013 77.579 55.8803 16.936Z" stroke="url(#paint0_radial_4_244)" stroke-width="13" stroke-linecap="round" stroke-linejoin="round"/>
<path d="M484.879 126.497L484.882 126.495L459.846 108.064L442.701 121.331L182.123 98.3069C173.834 97.5749 166.28 103.084 164.445 111.201L102.655 384.472L78.4189 403.227L103.785 421.801L103.8 421.789C105.7 423.315 107.954 424.461 110.489 425.04L408.77 493.181C417.946 495.277 427.031 489.345 428.801 480.101L493.142 144.162C494.54 136.863 490.943 129.865 484.879 126.497Z" fill="#A69FBF"/>
<path d="M484.879 126.497L484.882 126.495L459.846 108.064L442.701 121.331L182.123 98.3069C173.834 97.5749 166.28 103.084 164.445 111.201L102.655 384.472L78.4189 403.227L103.785 421.801L103.8 421.789C105.7 423.315 107.954 424.461 110.489 425.04L408.77 493.181C417.946 495.277 427.031 489.345 428.801 480.101L493.142 144.162C494.54 136.863 490.943 129.865 484.879 126.497Z" stroke="#7F7699" stroke-width="13" stroke-linecap="round" stroke-linejoin="round"/>
<path d="M84.8459 406.252L383.127 474.392C392.303 476.488 401.388 470.557 403.158 461.313L467.499 125.374C469.351 115.705 462.441 106.554 452.634 105.687L156.48 79.5189C148.191 78.7869 140.637 84.2959 138.802 92.413L72.3329 386.378C70.3109 395.319 75.9089 404.21 84.8459 406.252Z" fill="url(#paint1_linear_4_244)"/>
<g opacity="0.6">
<path d="M444.711 170.734L387.359 468.654" stroke="white" stroke-width="13" stroke-linecap="round" stroke-linejoin="round"/>
</g>
<g opacity="0.6">
<path d="M78.4189 403.227L136.135 156.587" stroke="white" stroke-width="13" stroke-linecap="round" stroke-linejoin="round"/>
</g>
<g opacity="0.4">
<path d="M173.281 283.541L168.798 302.322C167.044 309.672 159.897 314.407 152.444 313.157L133.403 309.963C125.197 308.586 119.871 300.549 121.803 292.455L126.286 273.674C128.04 266.324 135.187 261.589 142.64 262.839L161.681 266.033C169.887 267.41 175.213 275.447 173.281 283.541Z" fill="#A69FBF"/>
</g>
<g opacity="0.4">
<path d="M156.533 353.709L152.056 372.465C150.282 379.896 143.004 384.639 135.49 383.263L116.519 379.788C108.418 378.304 103.219 370.328 105.131 362.317L109.608 343.561C111.382 336.13 118.66 331.387 126.174 332.763L145.145 336.238C153.246 337.722 158.445 345.698 156.533 353.709Z" fill="#A69FBF"/>
</g>
<g opacity="0.4">
<path d="M411.526 244.863L407.87 263.801C406.416 271.334 399.3 276.396 391.707 275.299L372.623 272.542C364.504 271.369 359.013 263.65 360.568 255.596L364.224 236.663C365.678 229.131 372.792 224.07 380.384 225.165L399.468 227.917C407.588 229.088 413.081 236.808 411.526 244.863Z" fill="#A69FBF"/>
</g>
<g opacity="0.4">
<path d="M396.931 320.435L393.279 339.352C391.801 347.009 384.485 352.089 376.794 350.8L357.788 347.614C349.824 346.279 344.524 338.645 346.056 330.716L349.711 311.796C351.19 304.139 358.508 299.059 366.199 300.35L385.201 303.541C393.163 304.878 398.461 312.508 396.931 320.435Z" fill="#A69FBF"/>
</g>
<g opacity="0.4">
<path d="M382.642 394.445L378.989 413.365C377.495 421.104 370.047 426.196 362.294 424.777L343.345 421.31C335.485 419.872 330.307 412.297 331.822 404.451L335.475 385.531C336.969 377.792 344.417 372.7 352.17 374.119L371.119 377.586C378.979 379.024 384.157 386.599 382.642 394.445Z" fill="#A69FBF"/>
</g>
<g opacity="0.4">
<path d="M337.027 234.261L333.178 253.173C331.659 260.636 324.582 265.618 317.044 264.53L297.945 261.772C289.77 260.592 284.27 252.779 285.917 244.685L289.766 225.773C291.285 218.31 298.362 213.328 305.9 214.416L324.999 217.174C333.174 218.354 338.674 226.167 337.027 234.261Z" fill="#A69FBF"/>
</g>
<g opacity="0.4">
<path d="M322.015 308.014L318.171 326.895C316.626 334.482 309.348 339.482 301.712 338.2L282.702 335.01C274.683 333.664 269.377 325.939 270.999 317.972L274.843 299.091C276.388 291.504 283.666 286.504 291.302 287.786L310.312 290.976C318.331 292.322 323.637 300.047 322.015 308.014Z" fill="#A69FBF"/>
</g>
<g opacity="0.4">
<path d="M307.196 380.793L303.352 399.673C301.791 407.341 294.381 412.35 286.683 410.94L267.728 407.469C259.812 406.019 254.63 398.352 256.236 390.467L260.08 371.591C261.641 363.924 269.049 358.915 276.746 360.323L295.701 363.791C303.618 365.239 308.802 372.907 307.196 380.793Z" fill="#A69FBF"/>
</g>
<g opacity="0.4">
<path d="M259.995 223.222L256.05 242.114C254.499 249.541 247.441 254.484 239.931 253.4L220.835 250.644C212.63 249.46 207.126 241.597 208.822 233.482L212.77 214.589C214.322 207.163 221.38 202.222 228.889 203.306L247.982 206.062C256.186 207.246 261.689 215.108 259.995 223.222Z" fill="#A69FBF"/>
</g>
<g opacity="0.4">
<path d="M244.976 295.163L241.036 314.028C239.459 321.58 232.199 326.539 224.591 325.262L205.586 322.072C197.539 320.722 192.23 312.95 193.898 304.963L197.838 286.098C199.415 278.546 206.675 273.587 214.283 274.864L233.288 278.054C241.335 279.404 246.644 287.176 244.976 295.163Z" fill="#A69FBF"/>
</g>
<g opacity="0.4">
<path d="M230.029 366.741L226.088 385.6C224.494 393.231 217.106 398.199 209.437 396.796L190.485 393.329C182.54 391.876 177.353 384.161 179.005 376.255L182.946 357.396C184.54 349.765 191.928 344.797 199.597 346.2L218.549 349.667C226.494 351.12 231.681 358.835 230.029 366.741Z" fill="#A69FBF"/>
</g>
<g opacity="0.2">
<path d="M464.48 143.072L449.93 219.072C412.75 313.652 365.88 354.202 344.95 368.482C338.68 372.762 331.31 375.132 323.73 375.382C218.6 378.782 138.66 376.842 85.0802 374.052C81.7002 373.872 78.4202 373.702 75.2402 373.522L113.16 205.812C131.94 162.192 140.38 129.152 141.16 126.032C141.2 125.872 141.22 125.792 141.22 125.792C143.06 117.682 150.61 112.162 158.9 112.892L455.06 139.062C458.7 139.392 461.94 140.852 464.48 143.072Z" fill="#8585CC"/>
</g>
<path d="M84.8459 406.252L383.127 474.392C392.303 476.488 401.388 470.557 403.158 461.313L467.499 125.374C469.351 115.705 462.441 106.554 452.634 105.687L156.48 79.5189C148.191 78.7869 140.637 84.2959 138.802 92.413L72.3329 386.378C70.3109 395.319 75.9089 404.21 84.8459 406.252Z" stroke="#A19EAF" stroke-width="13" stroke-linecap="round" stroke-linejoin="round"/>
<path d="M84.8457 406.252L383.127 474.392C392.303 476.488 401.388 470.557 403.158 461.313L467.499 125.374C469.351 115.705 462.441 106.554 452.634 105.687L156.48 79.5189C148.191 78.7869 140.637 84.2959 138.802 92.413" stroke="#7F7699" stroke-width="13" stroke-linecap="round" stroke-linejoin="round"/>
<path d="M467.502 125.378L454.792 191.728L125.112 152.962L138.802 92.4079C140.642 84.2979 148.192 78.7879 156.482 79.5179L452.632 105.688C462.442 106.548 469.352 115.708 467.502 125.378Z" fill="#FF4D67"/>
<path d="M467.502 125.378L454.792 191.728L125.112 152.962L138.802 92.4079C140.642 84.2979 148.192 78.7879 156.482 79.5179L452.632 105.688C462.442 106.548 469.352 115.708 467.502 125.378Z" stroke="#9E1835" stroke-width="13" stroke-linecap="round" stroke-linejoin="round"/>
<g opacity="0.4">
<path d="M461.394 146.14L458.551 122.811C458.22 120.098 456.034 117.989 453.312 117.753L156.373 92.0259C153.59 91.7849 151.031 93.5659 150.299 96.2619C143.508 121.276 140.752 142.5 140.98 142.619" stroke="white" stroke-width="13" stroke-linecap="round" stroke-linejoin="round"/>
</g>
<path d="M493.141 144.158L480.411 210.608L454.791 191.728L467.501 125.378C468.651 119.358 466.411 113.538 462.191 109.798L484.881 126.498C490.941 129.868 494.541 136.868 493.141 144.158Z" fill="#B51845"/>
<path d="M493.141 144.158L480.411 210.608L454.791 191.728L467.501 125.378C468.651 119.358 466.411 113.538 462.191 109.798L484.881 126.498C490.941 129.868 494.541 136.868 493.141 144.158Z" stroke="#89102F" stroke-width="13" stroke-linecap="round" stroke-linejoin="round"/>
<path d="M421.384 491.008C417.776 493.303 413.287 494.212 408.776 493.182L110.493 425.035C107.955 424.461 105.704 423.318 103.802 421.792L103.781 421.797L78.418 403.231C80.264 404.648 82.429 405.698 84.842 406.255L383.122 474.391C388.19 475.552 393.233 474.258 397.032 471.321L421.384 491.008Z" fill="#7F7699"/>
<path d="M421.384 491.008C417.776 493.303 413.287 494.212 408.776 493.182L110.493 425.035C107.955 424.461 105.704 423.318 103.802 421.792L103.781 421.797L78.418 403.231C80.264 404.648 82.429 405.698 84.842 406.255L383.122 474.391C388.19 475.552 393.233 474.258 397.032 471.321L421.384 491.008Z" stroke="#7F7699" stroke-width="13" stroke-linecap="round" stroke-linejoin="round"/>
<path d="M397.8 100.84C403.039 45.3612 357.791 31.5842 338.506 71.2932C322.255 104.754 329.486 138.291 335.719 144.515C343.983 152.766 365.065 142.057 364.483 129.729C363.786 114.97 363.559 106.508 367.4 94.8672C371.791 81.5602 375.07 93.9442 374.316 98.7652L397.8 100.84Z" fill="url(#paint2_linear_4_244)"/>
<g opacity="0.85">
<path d="M329.532 127.117C329.532 127.117 330.815 71.9452 361.004 61.9172C389.744 52.3702 388.358 98.9172 388.358 98.9172" stroke="white" stroke-width="13" stroke-linecap="round" stroke-linejoin="round"/>
</g>
<path d="M252.286 87.9822C257.525 32.5032 212.277 18.7262 192.992 58.4352C176.741 91.8962 183.972 125.433 190.205 131.657C198.469 139.908 219.551 129.199 218.969 116.871C218.272 102.112 218.045 93.6502 221.886 82.0092C226.277 68.7022 229.556 81.0862 228.802 85.9072L252.286 87.9822Z" fill="url(#paint3_linear_4_244)"/>
<g opacity="0.85">
<path d="M184.077 114.667C184.077 114.667 186.229 54.4472 217.895 48.5392C245.076 43.4672 241.979 85.1212 241.979 85.1212" stroke="white" stroke-width="13" stroke-linecap="round" stroke-linejoin="round"/>
</g>
<path d="M397.8 100.84C403.039 45.3612 357.791 31.5842 338.506 71.2932C322.255 104.754 329.486 138.291 335.719 144.515C343.983 152.766 365.065 142.057 364.483 129.729C363.786 114.97 363.559 106.508 367.4 94.8672C371.791 81.5602 375.07 93.9442 374.316 98.7652L397.8 100.84Z" stroke="#BC5900" stroke-width="13" stroke-linecap="round" stroke-linejoin="round"/>
<path d="M252.286 87.9822C257.525 32.5032 212.277 18.7262 192.992 58.4352C176.741 91.8962 183.972 125.433 190.205 131.657C198.469 139.908 219.551 129.199 218.969 116.871C218.272 102.112 218.045 93.6502 221.886 82.0092C226.277 68.7022 229.556 81.0862 228.802 85.9072L252.286 87.9822Z" stroke="#BC5900" stroke-width="13" stroke-linecap="round" stroke-linejoin="round"/>
<path d="M374.316 98.7652L411.962 102.091" stroke="#9E1835" stroke-width="13" stroke-linecap="round" stroke-linejoin="round"/>
<path d="M228.803 85.9062L285.931 90.9562" stroke="#9E1835" stroke-width="13" stroke-linecap="round" stroke-linejoin="round"/>
<path d="M335.72 144.515C343.984 152.766 365.066 142.058 364.484 129.73C363.787 114.971 363.56 106.508 367.401 94.8672C371.792 81.5602 375.072 93.9442 374.318 98.7652" stroke="#9E4000" stroke-width="13" stroke-linecap="round" stroke-linejoin="round"/>
<path d="M190.204 131.657C198.468 139.908 219.55 129.2 218.968 116.872C218.271 102.113 218.044 93.6502 221.885 82.0092C226.276 68.7022 229.556 81.0862 228.802 85.9072" stroke="#9E4000" stroke-width="13" stroke-linecap="round" stroke-linejoin="round"/>
<path d="M452.637 105.686L156.478 79.5162C148.192 78.7852 140.638 84.2982 138.801 92.4112C138.801 92.4112 138.784 92.4922 138.742 92.6552C137.177 98.9362 104.628 226.155 19.3628 317.152C12.6718 324.293 17.0738 335.989 26.8218 336.85C40.1288 338.025 58.7758 339.431 82.6608 340.669C136.241 343.463 216.184 345.401 321.314 341.999C328.895 341.754 336.266 339.378 342.531 335.103C367.447 318.101 429.162 263.848 467.472 125.486C467.493 125.409 467.512 125.331 467.526 125.253C469.296 115.626 462.402 106.553 452.637 105.686Z" fill="white"/>
<path d="M467.503 125.37C461.287 147.852 454.442 168.106 447.247 186.35L118.006 154.852L117.995 154.854C131.724 120.184 138.066 95.3362 138.742 92.6552C138.784 92.4922 138.8 92.4112 138.8 92.4112C140.637 84.2982 148.191 78.7862 156.477 79.5172L452.637 105.686C462.442 106.557 469.351 115.699 467.503 125.37Z" fill="#FF4D67"/>
<g opacity="0.4">
<path d="M461.393 146.139L458.55 122.81C458.219 120.097 456.033 117.988 453.311 117.752L156.372 92.0252C153.59 91.7842 151.03 93.5652 150.298 96.2612C143.507 121.275 107.324 241.954 19.2295 333.118" stroke="white" stroke-width="13" stroke-linecap="round" stroke-linejoin="round"/>
</g>
<path d="M452.637 105.686L156.478 79.5162C148.192 78.7852 140.638 84.2982 138.801 92.4112C138.801 92.4112 138.784 92.4922 138.742 92.6552C137.177 98.9362 104.628 226.155 19.3628 317.152C12.6718 324.293 17.0738 335.989 26.8218 336.85C40.1288 338.025 58.7758 339.431 82.6608 340.669C136.241 343.463 216.184 345.401 321.314 341.999C328.895 341.754 336.266 339.378 342.531 335.103C367.447 318.101 429.162 263.848 467.472 125.486C467.493 125.409 467.512 125.331 467.526 125.253C469.296 115.626 462.402 106.553 452.637 105.686Z" stroke="#9591AF" stroke-width="13" stroke-linecap="round" stroke-linejoin="round"/>
<path d="M467.503 125.37C461.287 147.852 454.442 168.106 447.247 186.35L118.006 154.852L117.995 154.854C131.724 120.184 138.066 95.3362 138.742 92.6552C138.784 92.4922 138.8 92.4112 138.8 92.4112C140.637 84.2982 148.191 78.7862 156.477 79.5172L452.637 105.686C462.442 106.557 469.351 115.699 467.503 125.37Z" stroke="#9E1835" stroke-width="13" stroke-linecap="round" stroke-linejoin="round"/>
<path d="M397.801 100.84C403.04 45.3612 357.792 31.5842 338.507 71.2932C322.256 104.754 329.487 138.291 335.72 144.515C343.984 152.766 365.066 142.057 364.484 129.729C363.787 114.97 363.56 106.508 367.401 94.8672C371.792 81.5602 375.071 93.9442 374.317 98.7652L397.801 100.84Z" fill="url(#paint4_linear_4_244)"/>
<g opacity="0.85">
<path d="M329.533 127.117C329.533 127.117 330.816 71.9452 361.005 61.9172C389.745 52.3702 388.359 98.9172 388.359 98.9172" stroke="white" stroke-width="13" stroke-linecap="round" stroke-linejoin="round"/>
</g>
<path d="M252.286 87.9822C257.525 32.5032 212.277 18.7262 192.992 58.4352C176.741 91.8962 183.972 125.433 190.205 131.657C198.469 139.908 219.551 129.199 218.969 116.871C218.272 102.112 218.045 93.6502 221.886 82.0092C226.277 68.7022 229.556 81.0862 228.802 85.9072L252.286 87.9822Z" fill="url(#paint5_linear_4_244)"/>
<g opacity="0.85">
<path d="M184.078 114.667C184.078 114.667 186.23 54.4472 217.896 48.5392C245.077 43.4672 241.98 85.1212 241.98 85.1212" stroke="white" stroke-width="13" stroke-linecap="round" stroke-linejoin="round"/>
</g>
<path d="M397.801 100.84C403.04 45.3612 357.792 31.5842 338.507 71.2932C322.256 104.754 329.487 138.291 335.72 144.515C343.984 152.766 365.066 142.057 364.484 129.729C363.787 114.97 363.56 106.508 367.401 94.8672C371.792 81.5602 375.071 93.9442 374.317 98.7652L397.801 100.84Z" stroke="#BC5900" stroke-width="13" stroke-linecap="round" stroke-linejoin="round"/>
<path d="M252.286 87.9822C257.525 32.5032 212.277 18.7262 192.992 58.4352C176.741 91.8962 183.972 125.433 190.205 131.657C198.469 139.908 219.551 129.199 218.969 116.871C218.272 102.112 218.045 93.6502 221.886 82.0092C226.277 68.7022 229.556 81.0862 228.802 85.9072L252.286 87.9822Z" stroke="#BC5900" stroke-width="13" stroke-linecap="round" stroke-linejoin="round"/>
<path d="M374.316 98.7652L411.962 102.091" stroke="#9E1835" stroke-width="13" stroke-linecap="round" stroke-linejoin="round"/>
<path d="M228.803 85.9062L285.931 90.9562" stroke="#9E1835" stroke-width="13" stroke-linecap="round" stroke-linejoin="round"/>
<path d="M335.72 144.515C343.984 152.766 365.066 142.058 364.484 129.73C363.787 114.971 363.56 106.508 367.401 94.8672C371.792 81.5602 375.072 93.9442 374.318 98.7652" stroke="#9E4000" stroke-width="13" stroke-linecap="round" stroke-linejoin="round"/>
<path d="M190.205 131.657C198.469 139.908 219.551 129.2 218.969 116.872C218.272 102.113 218.045 93.6502 221.886 82.0092C226.277 68.7022 229.557 81.0862 228.803 85.9072" stroke="#9E4000" stroke-width="13" stroke-linecap="round" stroke-linejoin="round"/>
<g opacity="0.7">
<path d="M186.875 200.968C196.683 198.393 206.962 196.25 217.598 194.617C296.024 182.574 368.105 202.346 369.871 239.684C371.367 271.321 323.57 308.652 245.144 320.695C166.718 332.738 85.9775 320.691 85.8635 283.297C85.7515 246.682 140.37 229.758 180.19 228.802" stroke="#B5FF00" stroke-width="13" stroke-linecap="round" stroke-linejoin="round"/>
</g>
<path d="M153.108 243.206C175.071 228.362 192.267 188.125 151.523 197.104C142.301 198.208 115.583 245.677 109.603 252.031C94.5743 277.709 67.4123 302.373 83.1473 305.413C109.888 309.356 160.634 276.979 153.108 243.206ZM159.244 217.44C156.735 227.807 142.023 234.691 134.681 237.324L149.664 215.253C154.344 215.115 158.196 214.836 159.244 217.44ZM131.33 270.919C125.439 280.474 110.297 284.871 101.81 285.749C105.491 280.328 110.456 273.014 120.341 258.449C131.945 255.315 143.908 253.743 131.33 270.919Z" fill="#843DF4"/>
<path d="M184.459 267.583C191.285 268.341 203.938 252.003 193.687 248.949C176.335 248.317 170.313 243.6 161.948 255.696C153.148 271.422 173.519 265.232 184.459 267.583Z" fill="#843DF4"/>
<path d="M249.273 263.643C268.191 239.214 263.524 208.484 241.518 204.766C230.287 200.29 183.363 293.379 177.82 297.574C168.022 325.39 231.56 297.053 249.273 263.643ZM245.027 240.117C243.927 261.576 209.938 289.112 198.338 288.76C204.374 278.815 228.88 238.423 236.819 225.342C241.217 227.888 245.538 232.378 245.027 240.117Z" fill="#843DF4"/>
<path d="M312.263 214.042C298.92 205.603 295.03 213.696 260.399 256.301C242.008 283.916 229.419 292.568 228.486 306.615C239.474 318.05 247.921 291.639 264.612 271.696C264.611 271.694 284.624 272.742 284.624 272.742C278.738 287.906 272.93 301.043 272.664 301.643C267.723 314.773 284.3 311.998 287.217 302.204C290.302 296.814 322.071 218.288 312.263 214.042ZM297.785 230.836C297.463 234.157 296.092 241.034 291.282 254.748L277.877 253.937C288.729 239.85 294.745 233.58 297.785 230.836Z" fill="#843DF4"/>
<path d="M376.831 219.819C366.053 207.898 360.285 233.773 339.943 254.83C336.733 244.136 339.584 227.001 341.139 220.671C343.201 207.335 327.069 214.951 326.091 223.595C326.01 223.9 318.464 253.314 326.284 269.944C317.413 282.788 293.13 292.978 292.188 307.621C293.405 312.71 299.194 312.234 302.743 309.114C353.854 263.838 375.348 234.719 376.831 219.819Z" fill="#843DF4"/>
<path d="M324 342.5C287.5 349 96.9997 344 16.9997 334C17.9997 333.5 16.4997 334.5 16.9997 334.5C125 346 286 347 324.5 342.5C324.5 342.5 324 343 324 342.5Z" fill="url(#paint6_linear_4_244)"/>
<path d="M324 342.5C287.5 349 96.9997 344 16.9997 334C17.9997 333.5 16.4997 334.5 16.9997 334.5C125 346 286 347 324.5 342.5C324.5 342.5 324 343 324 342.5Z" stroke="#9591AF" stroke-width="13" stroke-linecap="round" stroke-linejoin="round"/>
</g>
</g>
<defs>
<radialGradient id="paint0_radial_4_244" cx="0" cy="0" r="1" gradientUnits="userSpaceOnUse" gradientTransform="translate(244.857 952.382) scale(63.1314 63.1314)">
<stop stop-color="#FFFF8D"/>
<stop offset="0.5" stop-color="#FFE346"/>
<stop offset="1" stop-color="#FFC800"/>
</radialGradient>
<linearGradient id="paint1_linear_4_244" x1="250.817" y1="416.72" x2="261.21" y2="331.502" gradientUnits="userSpaceOnUse">
<stop stop-color="white"/>
<stop offset="0.45" stop-color="#F3F1F9"/>
<stop offset="0.89" stop-color="#E7E4F2"/>
</linearGradient>
<linearGradient id="paint2_linear_4_244" x1="365.817" y1="14.7182" x2="363.653" y2="147.454" gradientUnits="userSpaceOnUse">
<stop offset="0.33" stop-color="#FDFF04"/>
<stop offset="0.77" stop-color="#FECD02"/>
<stop offset="0.94" stop-color="#FF9A00"/>
</linearGradient>
<linearGradient id="paint3_linear_4_244" x1="219.818" y1="12.7192" x2="217.653" y2="145.454" gradientUnits="userSpaceOnUse">
<stop offset="0.33" stop-color="#FDFF04"/>
<stop offset="0.77" stop-color="#FECD02"/>
<stop offset="0.94" stop-color="#FF9A00"/>
</linearGradient>
<linearGradient id="paint4_linear_4_244" x1="365.818" y1="14.7182" x2="363.654" y2="147.454" gradientUnits="userSpaceOnUse">
<stop offset="0.33" stop-color="#FDFF04"/>
<stop offset="0.77" stop-color="#FECD02"/>
<stop offset="0.94" stop-color="#FF9A00"/>
</linearGradient>
<linearGradient id="paint5_linear_4_244" x1="219.818" y1="12.7192" x2="217.653" y2="145.454" gradientUnits="userSpaceOnUse">
<stop offset="0.33" stop-color="#FDFF04"/>
<stop offset="0.77" stop-color="#FECD02"/>
<stop offset="0.94" stop-color="#FF9A00"/>
</linearGradient>
<linearGradient id="paint6_linear_4_244" x1="192.261" y1="250.747" x2="185.666" y2="353.253" gradientUnits="userSpaceOnUse">
<stop stop-color="#D9D7EE"/>
<stop offset="0.72" stop-color="#BAB8D6"/>
<stop offset="1" stop-color="#9C98BE"/>
</linearGradient>
<clipPath id="clip0_4_244">
<rect width="512" height="512" fill="white"/>
</clipPath>
</defs>
</svg>
