<svg width="512" height="512" viewBox="0 0 512 512" fill="none" xmlns="http://www.w3.org/2000/svg">
<g clip-path="url(#clip0_4_2292)">
<mask id="mask0_4_2292" style="mask-type:luminance" maskUnits="userSpaceOnUse" x="0" y="0" width="512" height="512">
<path d="M512 0H0V512H512V0Z" fill="white"/>
</mask>
<g mask="url(#mask0_4_2292)">
<path d="M251.022 141.127L65.7168 204.79L257.843 281.578L449.59 204.032L251.022 141.127Z" fill="#FFED69"/>
<path d="M251.022 141.127L65.7168 204.79L257.843 281.578L449.59 204.032L251.022 141.127Z" stroke="#EA8206" stroke-width="9" stroke-linecap="round" stroke-linejoin="round"/>
<path d="M255.189 323.021L251.021 141.127L255.189 323.021Z" fill="#FFED69"/>
<path d="M255.189 323.021L251.021 141.127" stroke="#EA8206" stroke-width="9" stroke-linecap="round" stroke-linejoin="round"/>
<path d="M90.9325 410.69L65.3945 205.287L255.569 281.369V479.317L90.9325 410.69Z" fill="url(#paint0_linear_4_2292)"/>
<path d="M90.9325 410.69L65.3945 205.287L255.569 281.369V479.317L90.9325 410.69Z" stroke="#EA8206" stroke-width="9" stroke-linecap="round" stroke-linejoin="round"/>
<path d="M420.204 408.69L448.51 203.014L255.568 281.369V479.317L420.204 408.69Z" fill="#F99F00"/>
<path d="M420.204 408.69L448.51 203.014L255.568 281.369V479.317L420.204 408.69Z" stroke="#EA8206" stroke-width="9" stroke-linecap="round" stroke-linejoin="round"/>
<g opacity="0.54">
<path d="M74.6895 276.461L68.0645 226.586L256 304.439V355.462L74.6895 276.461Z" fill="#EA8206"/>
<path d="M438.365 279.624L445.186 227.086L256 304.439V355.462L438.365 279.624Z" fill="#EA8206"/>
</g>
<path d="M318.885 453.654L323.78 251.4L372.664 234.348L362.843 433.949L318.885 453.654Z" fill="#BC0404"/>
<path d="M191.559 453.654L183.948 250.263L138.475 233.211L150.127 435.465L191.559 453.654Z" fill="#DD0505"/>
<g opacity="0.54">
<path d="M140.218 256.476L185.418 275.2L186.947 325.374L142.196 305.875L140.218 256.476Z" fill="#990000"/>
<path d="M370.973 257.43L324.477 276.441L322.006 328.013C322.006 328.013 369.259 309.77 369.505 308.26C369.751 306.75 370.973 257.43 370.973 257.43Z" fill="#990000"/>
</g>
<path d="M318.885 453.654L323.78 251.4L372.664 234.348L362.843 433.949L318.885 453.654Z" stroke="#990000" stroke-width="9" stroke-linecap="round" stroke-linejoin="round"/>
<path d="M191.559 453.654L183.948 250.263L138.475 233.211L150.127 435.465L191.559 453.654Z" stroke="#990000" stroke-width="9" stroke-linecap="round" stroke-linejoin="round"/>
<path d="M256 136.732L58.0645 198.836L256 278.939L453.936 198.836L256 136.732Z" fill="#FFED69"/>
<path d="M256 136.732L58.0645 198.836L256 278.939L453.936 198.836L256 136.732Z" stroke="#EA8206" stroke-width="9" stroke-linecap="round" stroke-linejoin="round"/>
<path d="M64.6895 248.711L58.0645 198.836L256 278.939V329.962L64.6895 248.711Z" fill="#FFD917"/>
<path d="M64.6895 248.711L58.0645 198.836L256 278.939V329.962L64.6895 248.711Z" stroke="#EA8206" stroke-width="9" stroke-linecap="round" stroke-linejoin="round"/>
<path d="M447.115 251.374L453.936 198.836L256 278.939V329.962L447.115 251.374Z" fill="#FFB522"/>
<path d="M447.115 251.374L453.936 198.836L256 278.939V329.962L447.115 251.374Z" stroke="#EA8206" stroke-width="9" stroke-linecap="round" stroke-linejoin="round"/>
<path d="M132.521 228.627L326.542 158.9L373.532 173.3L181.026 249.09L132.521 228.627Z" fill="#AF0808"/>
<path d="M132.521 228.627L326.542 158.9L373.532 173.3L181.026 249.09L132.521 228.627Z" stroke="#990000" stroke-width="9" stroke-linecap="round" stroke-linejoin="round"/>
<path d="M187.359 303.695L184.412 249.625L132.521 228.627L136.201 280.958L187.359 303.695Z" fill="#C90000"/>
<path d="M187.359 303.695L184.412 249.625L132.521 228.627L136.201 280.958L187.359 303.695Z" stroke="#990000" stroke-width="9" stroke-linecap="round" stroke-linejoin="round"/>
<path d="M381.111 228.627L187.09 158.9L140.1 173.3L323.78 249.127L381.111 228.627Z" fill="#AF0808"/>
<path d="M381.111 228.627L187.09 158.9L140.1 173.3L323.78 249.127L381.111 228.627Z" stroke="#990000" stroke-width="9" stroke-linecap="round" stroke-linejoin="round"/>
<path d="M323.291 306.384L324.917 251.4L381.111 228.627L377.211 284.369L323.291 306.384Z" fill="#BC0404"/>
<path d="M323.291 306.384L324.917 251.4L381.111 228.627L377.211 284.369L323.291 306.384Z" stroke="#990000" stroke-width="9" stroke-linecap="round" stroke-linejoin="round"/>
<path d="M272.584 205.408C272.584 205.408 348.627 192.64 390.205 169.639C451.513 135.723 418.901 105.721 418.901 105.721C418.901 105.721 360.526 69.968 351.487 41.803C351.487 41.803 367.953 86.772 335.551 134.175C303.149 181.578 257.035 196.707 257.035 196.707L272.584 205.408Z" fill="#AF0000"/>
<path d="M272.584 205.408C272.584 205.408 348.627 192.64 390.205 169.639C451.513 135.723 418.901 105.721 418.901 105.721C418.901 105.721 360.526 69.968 351.487 41.803C351.487 41.803 367.953 86.772 335.551 134.175C303.149 181.578 257.035 196.707 257.035 196.707L272.584 205.408Z" stroke="#990000" stroke-width="9" stroke-linecap="round" stroke-linejoin="round"/>
<path d="M257.035 196.707C257.035 196.707 243.179 118.24 270.812 67.969C298.445 17.698 355.693 35.889 355.693 35.889C355.693 35.889 387.034 80.466 420.032 105.505C420.032 105.505 342.384 78.539 305.776 131.855C269.168 185.171 266.38 204.924 266.38 204.924L257.035 196.707Z" fill="#FF0B0B"/>
<path d="M257.035 196.707C257.035 196.707 243.179 118.24 270.812 67.969C298.445 17.698 355.693 35.889 355.693 35.889C355.693 35.889 387.034 80.466 420.032 105.505C420.032 105.505 342.384 78.539 305.776 131.855C269.168 185.171 266.38 204.924 266.38 204.924L257.035 196.707Z" stroke="#990000" stroke-width="9" stroke-linecap="round" stroke-linejoin="round"/>
<path d="M263.384 116.206C263.384 116.206 266.922 70.731 294.711 52.542C322.5 34.353 339.174 40.416 339.174 40.416C339.174 40.416 352.816 70.227 381.111 89.427C381.111 89.427 332.101 89.932 311.89 109.637C291.679 129.342 289.153 138.942 289.153 138.942C289.153 138.942 281.068 114.185 263.384 116.206Z" fill="url(#paint1_linear_4_2292)"/>
<path d="M227.276 178.161L251.219 191.261C251.219 191.261 244.774 145.823 239.86 96.761C234.946 47.699 176.475 13.186 142.461 49.229C142.461 49.229 125.607 105.332 107.061 135.092C107.061 135.092 132.196 100.853 166.838 104.801C201.48 108.749 227.276 178.161 227.276 178.161Z" fill="#AF0000"/>
<path d="M227.276 178.161L251.219 191.261C251.219 191.261 244.774 145.823 239.86 96.761C234.946 47.699 176.475 13.186 142.461 49.229C142.461 49.229 125.607 105.332 107.061 135.092C107.061 135.092 132.196 100.853 166.838 104.801C201.48 108.749 227.276 178.161 227.276 178.161Z" stroke="#990000" stroke-width="9" stroke-linecap="round" stroke-linejoin="round"/>
<path d="M251.219 191.261C251.219 191.261 243.791 174.456 209.842 145.598C175.893 116.74 123.416 101.417 142.461 49.229C142.461 49.229 109.559 119.06 83.666 146.999C83.666 146.999 90.981 181.27 136.595 188.569C182.209 195.868 201.222 176.131 251.219 191.261Z" fill="#FF0B0B"/>
<path d="M251.219 191.261C251.219 191.261 243.791 174.456 209.842 145.598C175.893 116.74 123.416 101.417 142.461 49.229C142.461 49.229 109.559 119.06 83.666 146.999C83.666 146.999 90.981 181.27 136.595 188.569C182.209 195.868 201.222 176.131 251.219 191.261Z" stroke="#990000" stroke-width="9" stroke-linecap="round" stroke-linejoin="round"/>
<path d="M97.6572 155.616C97.6572 155.616 126.962 139.448 138.583 100.037C138.583 100.037 155.762 125.806 190.625 141.469C190.625 141.469 155.762 153.595 150.204 181.89C150.204 181.89 110.794 180.374 97.6572 155.616Z" fill="url(#paint2_linear_4_2292)"/>
<path d="M261.524 201.725C261.524 201.725 292.104 210.231 309 232.074C325.896 253.917 369.78 264.21 369.78 264.21C369.78 264.21 378.341 228.515 399.864 219.135C399.864 219.135 372.188 221.05 350.213 208.555C328.238 196.06 269.441 188.103 251.449 195.802L261.524 201.725Z" fill="#FF0B0B"/>
<path d="M261.524 201.725C261.524 201.725 292.104 210.231 309 232.074C325.896 253.917 369.78 264.21 369.78 264.21C369.78 264.21 378.341 228.515 399.864 219.135C399.864 219.135 372.188 221.05 350.213 208.555C328.238 196.06 269.441 188.103 251.449 195.802L261.524 201.725Z" stroke="#990000" stroke-width="9" stroke-linecap="round" stroke-linejoin="round"/>
<path d="M256.738 194.239C256.738 194.239 224.336 196.019 207.587 227.527C190.838 259.035 186.775 266.267 186.775 266.267C186.775 266.267 165.801 240.592 133.786 238.973C101.771 237.354 90.1484 238.057 90.1484 238.057C90.1484 238.057 127.169 220.602 170.66 201.453C214.151 182.304 248.138 186.172 248.138 186.172L256.738 194.239Z" fill="#FF0B0B"/>
<path d="M256.738 194.239C256.738 194.239 224.336 196.019 207.587 227.527C190.838 259.035 186.775 266.267 186.775 266.267C186.775 266.267 165.801 240.592 133.786 238.973C101.771 237.354 90.1484 238.057 90.1484 238.057C90.1484 238.057 127.169 220.602 170.66 201.453C214.151 182.304 248.138 186.172 248.138 186.172L256.738 194.239Z" stroke="#990000" stroke-width="9" stroke-linecap="round" stroke-linejoin="round"/>
<path d="M253.245 170.615C253.245 170.615 248.583 187.727 272.585 205.408C272.585 205.408 267.133 216.633 242.395 203.055C242.395 203.055 236.1 198.404 240.193 177.92C240.193 177.92 240.645 172.129 253.245 170.615Z" fill="#FF0B0B"/>
<path d="M253.245 170.615C253.245 170.615 248.583 187.727 272.585 205.408C272.585 205.408 267.133 216.633 242.395 203.055C242.395 203.055 236.1 198.404 240.193 177.92C240.193 177.92 240.645 172.129 253.245 170.615Z" stroke="#990000" stroke-width="9" stroke-linecap="round" stroke-linejoin="round"/>
</g>
</g>
<defs>
<linearGradient id="paint0_linear_4_2292" x1="170.001" y1="423" x2="157.875" y2="207.758" gradientUnits="userSpaceOnUse">
<stop stop-color="#F9D021"/>
<stop offset="0.5" stop-color="#F9B811"/>
<stop offset="1" stop-color="white"/>
</linearGradient>
<linearGradient id="paint1_linear_4_2292" x1="334.001" y1="127" x2="286.001" y2="29.989" gradientUnits="userSpaceOnUse">
<stop offset="0.27" stop-color="white" stop-opacity="0"/>
<stop offset="0.74" stop-color="white" stop-opacity="0.5"/>
<stop offset="1" stop-color="white"/>
</linearGradient>
<linearGradient id="paint2_linear_4_2292" x1="162" y1="186" x2="112.24" y2="85.432" gradientUnits="userSpaceOnUse">
<stop offset="0.27" stop-color="white" stop-opacity="0"/>
<stop offset="0.74" stop-color="white" stop-opacity="0.5"/>
<stop offset="1" stop-color="white"/>
</linearGradient>
<clipPath id="clip0_4_2292">
<rect width="512" height="512" fill="white"/>
</clipPath>
</defs>
</svg>
