<svg width="512" height="512" viewBox="0 0 512 512" fill="none" xmlns="http://www.w3.org/2000/svg">
<g clip-path="url(#clip0_4_2706)">
<mask id="mask0_4_2706" style="mask-type:luminance" maskUnits="userSpaceOnUse" x="0" y="0" width="512" height="512">
<path d="M512 0H0V512H512V0Z" fill="white"/>
</mask>
<g mask="url(#mask0_4_2706)">
<path d="M261.708 492.342C255.121 492.342 248.907 489.793 244.212 485.166C215.953 457.311 144.874 385.557 95.3092 321.029C65.1422 281.754 44.9252 246.886 33.5062 214.434C24.0132 187.458 19.8622 161.803 22.1912 133.819C28.9992 52 96.0792 16.724 143.898 20.351C191.999 24 233.999 48.999 257.613 90.009L261.708 95.853L265.803 90.009C293.5 45.999 335.547 23.878 379.017 21.852C429.5 19.5 496.5 52.5 501.225 133.819C502.854 161.85 499.402 187.457 489.909 214.433C478.488 246.889 458.272 281.758 428.107 321.029C378.531 385.57 307.459 457.314 279.203 485.166C274.508 489.793 268.295 492.342 261.708 492.342Z" fill="url(#paint0_linear_4_2706)"/>
<path d="M261.708 492.342C255.121 492.342 248.907 489.793 244.212 485.166C215.953 457.311 144.874 385.557 95.3092 321.029C65.1422 281.754 44.9252 246.886 33.5062 214.434C24.0132 187.458 19.8622 161.803 22.1912 133.819C28.9992 52 96.0792 16.724 143.898 20.351C191.999 24 233.999 48.999 257.613 90.009L261.708 95.853L265.803 90.009C293.5 45.999 335.547 23.878 379.017 21.852C429.5 19.5 496.5 52.5 501.225 133.819C502.854 161.85 499.402 187.457 489.909 214.433C478.488 246.889 458.272 281.758 428.107 321.029C378.531 385.57 307.459 457.314 279.203 485.166C274.508 489.793 268.295 492.342 261.708 492.342Z" stroke="#A52272" stroke-width="8" stroke-miterlimit="10"/>
<path d="M482.546 145.137C485.121 91.5783 448.173 37.056 378.886 36.7893C303.5 36.4997 264.183 126.953 262.025 132.582C261.953 132.77 261.918 132.866 261.918 132.866C261.918 132.866 224.454 37.2858 142.16 37.5195C72.8729 37.7164 39.1493 93.1658 40.4524 143.549C41.4798 183.272 55.8994 229.509 110.121 301.975C129.204 327.481 144.026 345.643 166.304 369.68C238.424 447.496 280.334 451.306 354.992 370.95C373.909 350.591 392.727 329.386 412.446 304.515C468.675 233.596 480.637 184.827 482.546 145.137Z" fill="url(#paint1_linear_4_2706)"/>
<mask id="mask1_4_2706" style="mask-type:luminance" maskUnits="userSpaceOnUse" x="40" y="36" width="443" height="394">
<path d="M482.546 145.137C485.121 91.5783 448.173 37.056 378.886 36.7893C303.5 36.4997 264.183 126.953 262.025 132.582C261.953 132.77 261.918 132.866 261.918 132.866C261.918 132.866 224.454 37.2858 142.16 37.5195C72.8729 37.7164 39.1493 93.1658 40.4524 143.549C41.4798 183.272 55.8994 229.509 110.121 301.975C129.204 327.481 144.026 345.643 166.304 369.68C238.424 447.496 280.334 451.306 354.992 370.95C373.909 350.591 392.727 329.386 412.446 304.515C468.675 233.596 480.637 184.827 482.546 145.137Z" fill="url(#paint2_radial_4_2706)"/>
</mask>
<g mask="url(#mask1_4_2706)">
<path d="M482.546 145.137C485.121 91.5783 448.173 37.056 378.886 36.7893C303.5 36.4997 264.183 126.953 262.025 132.582C261.953 132.77 261.918 132.866 261.918 132.866C261.918 132.866 224.454 37.2858 142.16 37.5195C72.8729 37.7164 39.1493 93.1658 40.4524 143.549C41.4798 183.272 55.8994 229.509 110.121 301.975C129.204 327.481 144.026 345.643 166.304 369.68C238.424 447.496 280.334 451.306 354.992 370.95C373.909 350.591 392.727 329.386 412.446 304.515C468.675 233.596 480.637 184.827 482.546 145.137Z" fill="url(#paint3_radial_4_2706)"/>
</g>
<path d="M91.3275 50.3172C-0.112545 99.8472 57.2508 227.876 86.998 268.757C53.978 212.877 77.3575 159.855 111.663 133.859C156.472 99.9031 220.867 109.372 261.507 133.502C239.251 73.1251 167.738 8.92793 91.3275 50.3172Z" fill="white" fill-opacity="0.02"/>
<path d="M91.3277 50.3172C-0.112312 99.8471 55.8756 223.875 77.7908 254.537C50.1683 208.817 71.7519 155.079 108.17 128.144C156.733 92.2271 222.773 101.752 259.603 128.74C235.25 71.8754 167.739 8.92786 91.3277 50.3172Z" fill="white" fill-opacity="0.02"/>
<path d="M91.3269 50.3173C-0.113056 99.8473 53.9775 225.838 77.79 254.413C42.865 205.835 68.2485 150.727 104.36 123.382C155.144 84.9248 232.932 96.3548 259.602 128.74C237 73.2509 167.738 8.92797 91.3269 50.3173Z" fill="white" fill-opacity="0.03"/>
<path d="M91.3279 50.3172C-0.112061 99.8472 56.9503 221.142 69.6503 240.51C42.3453 194.155 65.7095 145.647 101.821 118.302C152.605 79.8447 229.758 92.2272 255.793 120.167C229.001 69.2504 167.739 8.92792 91.3279 50.3172Z" fill="white" fill-opacity="0.03"/>
<path d="M91.3264 50.3172C4.33139 97.6247 53.5477 209.578 64.184 230.691C41.4827 186.876 63.7039 139.217 100.867 111.952C149.002 76.6354 226.105 85.0834 252.14 113.023C230.75 70.7502 166.836 9.25554 91.3264 50.3172Z" fill="white" fill-opacity="0.03"/>
<path d="M91.3278 50.3172C9.73028 94.7672 48.7523 195.199 59.7061 220.44C38.6253 178.126 63.7256 130.708 100.551 104.332C148.478 70.0022 224.043 82.7022 247.379 105.086C225.375 68.6255 166.806 9.20098 91.3278 50.3172Z" fill="white" fill-opacity="0.04"/>
<path d="M91.326 50.3173C14.491 90.3223 44.8834 186.525 55.9959 212.877C35.5171 170.015 64.656 121.12 99.2788 97.9816C148.926 64.8029 220.866 77.9398 242.615 97.9423C220.998 67.5004 167.563 10.6234 91.326 50.3173Z" fill="white" fill-opacity="0.08"/>
<path d="M91.3264 50.3172C16.3964 90.0047 44.5092 178.746 52.1292 202.876C34.8254 154.14 69.5688 107.825 99.1204 89.4091C149.111 58.2547 219.755 74.2885 236.106 89.6872C216.499 63.0007 161.618 13.0859 91.3264 50.3172Z" fill="white" fill-opacity="0.09"/>
<path d="M91.3266 50.3172C18.6191 88.0997 44.9183 174.584 48.0933 189.507C38.727 144.58 64.6566 101.117 98.3269 80.9953C149.574 50.3692 215.117 71.5655 227.976 80.6143C203.624 51.7497 156.108 16.6533 91.3266 50.3172Z" fill="white" fill-opacity="0.1"/>
<path d="M91.3277 50.3172C27.0124 83.8529 41.244 153.857 43.4665 170.367C42.0377 135.442 60.2127 94.1322 97.2167 72.7404C148.903 42.8611 210.938 66.6444 219.986 71.5656C204.25 54.9997 154.351 17.456 91.3277 50.3172Z" fill="white" fill-opacity="0.11"/>
<path d="M91.3277 50.3173C34.1777 80.7973 40.4502 139.059 41.5615 157.474C41.7202 128.264 57.5673 86.3992 94.9942 65.7554C145.144 38.0935 202.001 59.6264 212.232 64.399C199.501 52.7506 150.35 18.8391 91.3277 50.3173Z" fill="white" fill-opacity="0.12"/>
<path d="M91.3274 50.3172C46.6425 72.3936 39.4403 120.167 40.3928 139.852C43.0916 113.658 55.8208 79.2554 93.2477 58.6115C143.397 30.9497 196.063 53.9214 200.032 55.5089C186.626 44.8752 144.667 23.9647 91.3274 50.3172Z" fill="white" fill-opacity="0.13"/>
<path d="M431.993 50.3172C523.433 99.8472 466.069 227.876 436.322 268.757C469.342 212.877 445.963 159.855 411.658 133.859C366.848 99.9031 302.453 109.372 261.813 133.502C284.07 73.1251 355.582 8.92793 431.993 50.3172Z" fill="white" fill-opacity="0.02"/>
<path d="M431.993 50.3172C523.433 99.8471 467.445 223.875 445.53 254.537C473.152 208.817 451.568 155.079 415.15 128.144C366.588 92.2271 300.548 101.752 263.718 128.74C288.07 71.8754 355.582 8.92786 431.993 50.3172Z" fill="white" fill-opacity="0.02"/>
<path d="M431.993 50.3173C523.433 99.8473 469.343 225.838 445.53 254.413C480.455 205.835 455.072 150.727 418.961 123.382C368.176 84.9248 290.388 96.3548 263.718 128.74C286.321 73.2509 355.583 8.92797 431.993 50.3173Z" fill="white" fill-opacity="0.03"/>
<path d="M431.992 50.3172C523.432 99.8472 466.37 221.142 453.67 240.51C480.975 194.155 457.611 145.647 421.5 118.302C370.715 79.8447 293.562 92.2272 267.527 120.167C294.319 69.2504 355.582 8.92792 431.992 50.3172Z" fill="white" fill-opacity="0.03"/>
<path d="M431.994 50.3172C518.989 97.6247 469.773 209.578 459.136 230.691C481.838 186.876 459.616 139.217 422.454 111.952C374.318 76.6354 297.215 85.0834 271.18 113.023C292.571 70.7502 356.485 9.25554 431.994 50.3172Z" fill="white" fill-opacity="0.03"/>
<path d="M431.993 50.3172C513.59 94.7672 474.568 195.199 463.614 220.44C484.695 178.126 459.595 130.708 422.77 104.332C374.843 70.0022 299.278 82.7022 275.941 105.086C297.945 68.6255 356.514 9.20098 431.993 50.3172Z" fill="white" fill-opacity="0.04"/>
<path d="M431.994 50.3173C508.829 90.3223 478.437 186.525 467.324 212.877C487.803 170.015 458.664 121.12 424.042 97.9816C374.395 64.8029 302.454 77.9398 280.706 97.9423C302.322 67.5004 355.757 10.6234 431.994 50.3173Z" fill="white" fill-opacity="0.08"/>
<path d="M431.994 50.3172C506.924 90.0047 478.811 178.746 471.191 202.876C488.495 154.14 453.752 107.825 424.2 89.4091C374.209 58.2547 303.565 74.2885 287.214 89.6872C306.821 63.0007 361.702 13.0859 431.994 50.3172Z" fill="white" fill-opacity="0.09"/>
<path d="M431.994 50.3172C504.701 88.0997 478.402 174.584 475.227 189.507C484.593 144.58 458.664 101.117 424.993 80.9953C373.746 50.3692 308.203 71.5655 295.344 80.6143C319.696 51.7497 367.212 16.6533 431.994 50.3172Z" fill="white" fill-opacity="0.1"/>
<path d="M431.993 50.3172C496.308 83.8529 482.076 153.857 479.854 170.367C481.283 135.442 463.108 94.1322 426.104 72.7404C374.417 42.8611 312.383 66.6444 303.334 71.5656C319.071 54.9997 368.969 17.456 431.993 50.3172Z" fill="white" fill-opacity="0.11"/>
<path d="M431.993 50.3173C489.143 80.7973 482.87 139.059 481.759 157.474C481.6 128.264 465.753 86.3992 428.326 65.7554C378.176 38.0935 321.32 59.6264 311.089 64.399C323.819 52.7506 372.971 18.8391 431.993 50.3173Z" fill="white" fill-opacity="0.12"/>
<path d="M431.993 50.3172C476.678 72.3936 483.88 120.167 482.927 139.852C480.229 113.658 467.5 79.2554 430.073 58.6115C379.923 30.9497 327.257 53.9214 323.288 55.5089C336.695 44.8752 378.653 23.9647 431.993 50.3172Z" fill="white" fill-opacity="0.13"/>
<mask id="mask2_4_2706" style="mask-type:luminance" maskUnits="userSpaceOnUse" x="40" y="36" width="223" height="233">
<path d="M91.9094 50.2589C0.68787 99.7343 52.2334 222.442 87.7895 268.969C117 200.389 234.149 140.429 262.089 133.444C234.25 68.2497 168.297 8.82895 91.9094 50.2589Z" fill="url(#paint4_linear_4_2706)"/>
</mask>
<g mask="url(#mask2_4_2706)">
<path d="M91.9094 50.2589C0.68787 99.7343 52.2334 222.442 87.7895 268.969C117 200.389 234.149 140.429 262.089 133.444C234.25 68.2497 168.297 8.82895 91.9094 50.2589Z" fill="url(#paint5_linear_4_2706)" fill-opacity="0.85"/>
</g>
<mask id="mask3_4_2706" style="mask-type:luminance" maskUnits="userSpaceOnUse" x="262" y="38" width="221" height="247">
<path d="M430.103 50.4249C518.499 93.0004 479.999 223 426.023 284.335C396.813 215.755 290.403 140.055 262.463 133.07C281.998 79.5002 345.818 9.82932 430.103 50.4249Z" fill="url(#paint6_linear_4_2706)"/>
</mask>
<g mask="url(#mask3_4_2706)">
<path d="M430.103 50.4249C518.499 93.0004 479.999 223 426.023 284.335C396.813 215.755 290.403 140.055 262.463 133.07C281.998 79.5002 345.818 9.82932 430.103 50.4249Z" fill="url(#paint7_linear_4_2706)" fill-opacity="0.85"/>
</g>
<path d="M169.7 293.928C211.623 277.184 293.211 332.538 335.861 376.957C342.033 383.384 340.925 386.425 331.607 388.759C313.63 393.263 284.74 399.313 275.884 406.722C266.69 414.413 257.315 436.568 243.055 463.93C236.886 475.766 231.195 475.016 230.522 462.246C227.152 398.321 209.714 366.445 189.29 346.839C186.825 344.472 182.363 346.488 182.484 349.931C183.212 370.609 192.521 419.437 197.997 431.983C183.203 418.72 154.512 391.401 140.78 374.838C138.87 335.918 146.821 303.066 169.7 293.928Z" fill="#C4006C"/>
<path d="M260.353 327.835C300.546 337.497 350.548 352.218 353.278 322.381C357.683 291.377 354.023 263.251 347.03 235.986C340.037 208.721 286.553 223.699 243.263 245.009C203.46 264.604 201.238 283.577 204.067 293.053C208.157 306.756 225.791 319.527 260.353 327.835Z" fill="#C4006C"/>
<path d="M424.85 325.177C383.81 326.518 161.515 325.29 121.92 331.918C115.62 324.771 99.6753 303.07 95.2082 296.553C115.621 295.887 425.767 285.598 451.172 284.768L424.85 325.177Z" fill="#C4006C"/>
<path d="M33.627 221.547C44.7859 251.85 68.123 287.7 87.849 313.393C137.405 313.393 386.393 313.393 435.427 313.393C455.153 287.7 477.74 251.85 488.899 221.547C444.852 221.547 76.043 221.547 33.627 221.547Z" fill="url(#paint8_linear_4_2706)"/>
<path d="M33.627 221.547C44.7859 251.85 68.123 287.7 87.849 313.393C137.405 313.393 386.393 313.393 435.427 313.393C455.153 287.7 477.74 251.85 488.899 221.547C444.852 221.547 76.043 221.547 33.627 221.547Z" stroke="#C48427" stroke-width="8" stroke-linecap="round" stroke-linejoin="round"/>
<g opacity="0.66">
<path d="M451.188 217.133C440.029 250.115 418.56 288.88 398.834 316.845L432.964 317.936C435.025 318.002 436.978 317.039 438.183 315.366C456.349 290.131 479.582 253.797 491.09 222.861C491.947 220.558 490.263 218.101 487.806 218.04L451.188 217.133Z" fill="url(#paint9_linear_4_2706)"/>
</g>
<path d="M197.299 435.957C191.308 433.231 184.804 429.998 178.436 426.832C162.718 419.019 149.144 412.271 142.032 412.158C131.929 411.998 109.047 421.987 91.0084 432.646C100.076 406.86 111.304 362.063 109.7 328.543L152.732 316.346C158.274 356.186 178.918 399.419 197.299 435.957Z" stroke="#C48427" stroke-width="16.24" stroke-linecap="round" stroke-linejoin="round"/>
<path d="M197.299 435.957C191.308 433.231 184.804 429.998 178.436 426.832C162.718 419.019 149.144 412.271 142.032 412.158C131.929 411.998 109.047 421.987 91.0084 432.646C100.076 406.86 111.304 362.063 109.7 328.543L152.732 316.346C158.274 356.186 178.918 399.419 197.299 435.957Z" fill="url(#paint10_linear_4_2706)"/>
<path d="M197.299 435.957C191.308 433.231 184.804 429.998 178.436 426.832C162.718 419.019 149.144 412.271 142.032 412.158C131.929 411.998 109.047 421.987 91.0084 432.646C100.076 406.86 111.304 362.063 109.7 328.543L152.732 316.346C158.274 356.186 178.918 399.419 197.299 435.957Z" fill="url(#paint11_linear_4_2706)"/>
<path d="M197.299 435.957C191.308 433.231 184.804 429.998 178.436 426.832C162.718 419.019 149.144 412.271 142.032 412.158C131.929 411.998 109.047 421.987 91.0084 432.646C100.076 406.86 111.304 362.063 109.7 328.543L152.732 316.346C158.274 356.186 178.918 399.419 197.299 435.957Z" fill="url(#paint12_linear_4_2706)"/>
<path d="M226.479 427.698C222.258 370.088 193.766 327.524 179.889 307.504L191.081 290.218C223.733 297.58 282.827 330.77 317.432 366.118C313.429 366.83 308.464 367.554 303.328 368.301C283.07 371.25 268.209 373.679 261.473 378.101C255.335 382.129 250.225 390.521 243.151 402.135C238.604 409.6 233.211 418.457 226.479 427.698Z" stroke="#C48427" stroke-width="16.24" stroke-linecap="round" stroke-linejoin="round"/>
<path d="M226.479 427.698C222.258 370.088 193.766 327.524 179.889 307.504L191.081 290.218C223.733 297.58 282.827 330.77 317.432 366.118C313.429 366.83 308.464 367.554 303.328 368.301C283.07 371.25 268.209 373.679 261.473 378.101C255.335 382.129 250.225 390.521 243.151 402.135C238.604 409.6 233.211 418.457 226.479 427.698Z" fill="url(#paint13_linear_4_2706)"/>
<path d="M226.479 427.698C222.258 370.088 193.766 327.524 179.889 307.504L191.081 290.218C223.733 297.58 282.827 330.77 317.432 366.118C313.429 366.83 308.464 367.554 303.328 368.301C283.07 371.25 268.209 373.679 261.473 378.101C255.335 382.129 250.225 390.521 243.151 402.135C238.604 409.6 233.211 418.457 226.479 427.698Z" fill="url(#paint14_linear_4_2706)"/>
<path d="M226.479 427.698C222.258 370.088 193.766 327.524 179.889 307.504L191.081 290.218C223.733 297.58 282.827 330.77 317.432 366.118C313.429 366.83 308.464 367.554 303.328 368.301C283.07 371.25 268.209 373.679 261.473 378.101C255.335 382.129 250.225 390.521 243.151 402.135C238.604 409.6 233.211 418.457 226.479 427.698Z" fill="url(#paint15_linear_4_2706)"/>
<g opacity="0.8">
<path d="M273.8 320.287C225.46 287.67 191.644 281.541 186.502 282.193C183.743 286.045 174.221 305.007 171 307.016C175.572 314.129 185.792 328.965 190.75 338.782C191.337 331.791 205.702 323.203 210.579 321.447C224.913 316.285 255.496 333.818 306.093 344.987C294.81 336.092 286.103 327.748 273.8 320.287Z" fill="#995605"/>
</g>
<g opacity="0.15">
<path d="M187.577 320.975C208.187 326.149 216.728 345.273 228.648 374.098C233.603 386.078 242.706 382.079 243.128 366.026C243.642 346.459 234.411 334.334 233.267 332.245C225.562 318.167 202.984 308.786 199.707 311.401C192.512 317.145 187.577 320.975 187.577 320.975Z" fill="#CE7500"/>
</g>
<g opacity="0.28">
<path d="M245.923 360.27C238.271 336.02 222.228 318.547 226.398 315.522C230.568 312.497 265.452 321.082 267.776 338.413C271.089 363.139 248.088 367.135 245.923 360.27Z" fill="url(#paint16_linear_4_2706)"/>
</g>
<mask id="mask4_4_2706" style="mask-type:luminance" maskUnits="userSpaceOnUse" x="195" y="329" width="38" height="98">
<path d="M195.969 331.762C205.152 347.407 221.793 380.965 226.329 426.915C230.547 424.115 232.669 420.849 232.485 418.842C228.761 378.132 203.968 335.25 198.321 329.734C197.45 330.119 197.211 330.997 195.969 331.762Z" fill="url(#paint17_linear_4_2706)"/>
</mask>
<g mask="url(#mask4_4_2706)">
<path d="M195.969 331.762C205.152 347.407 221.793 380.965 226.329 426.915C230.547 424.115 232.669 420.849 232.485 418.842C228.761 378.132 203.968 335.25 198.321 329.734C197.45 330.119 197.211 330.997 195.969 331.762Z" fill="url(#paint18_linear_4_2706)"/>
</g>
<g opacity="0.8">
<path d="M166.171 342.004C163.183 332.414 160.158 317.721 158.504 308.317C153.395 308.621 141.203 311.084 141.203 311.084C119.508 316.519 108.871 318.113 102.365 325.101C101.423 333.616 97.2151 377.786 95.5285 386.282C122.965 353.363 144.591 321.108 166.171 342.004Z" fill="#995605"/>
</g>
<g opacity="0.15">
<path d="M141.896 327.207C134.821 340.975 131.427 371.516 138.526 390.728C141.978 400.07 160.65 396.735 160.873 388.957C161.413 370.167 150.099 343.296 151.502 326.802C146.568 323.679 141.896 327.207 141.896 327.207Z" fill="url(#paint19_linear_4_2706)"/>
</g>
<g opacity="0.33">
<path d="M112.72 378.765C113.73 367.226 126.26 346.65 132.461 345.52C138.663 344.391 130.758 357.023 135.865 394.157C122.518 400.872 111.21 396.003 112.72 378.765Z" fill="#FFFEE2"/>
</g>
<path d="M161.36 362.744C167.38 384.482 181.171 413.689 193.086 432.224" stroke="#FFFC00" stroke-width="6.09" stroke-linecap="round" stroke-linejoin="round"/>
<path d="M73 228.727L445.076 228.133" stroke="#FFFC92" stroke-width="6" stroke-linecap="round" stroke-linejoin="round"/>
<g opacity="0.66">
<path d="M71.1934 228.041L226.446 222.969" stroke="#FFFC00" stroke-width="7.65654" stroke-linecap="round" stroke-linejoin="round"/>
</g>
<g opacity="0.44">
<path d="M224.949 223.382C210.173 223.475 57.9121 228.059 57.9121 228.059C110.384 336.697 205.482 291.663 224.949 223.382Z" fill="#995605"/>
</g>
<path d="M337.033 316.494C337.655 289.274 333.786 240.179 323.62 218.061C311.155 218.036 303.217 217.864 303.217 217.864C308.953 243.149 321.741 299.292 317.442 317.998C325.743 317.726 337.033 316.494 337.033 316.494Z" fill="url(#paint20_linear_4_2706)"/>
<path d="M156.459 234.151C190.854 224.516 202.765 200.557 212.46 180.65C225.478 153.916 253.351 142.032 267.102 153.125C280.479 163.916 302.48 190.416 315.077 240.832C326.867 288.019 328.399 330.451 308.028 331.053C287.657 331.655 245.671 299.269 180.309 308.973C109.979 319.416 76.7288 399.916 57.5522 393.409C36.3524 386.216 12.3417 317.349 9.07724 277.624C5.97875 239.915 13.7744 212.6 26.3491 209.874C69.9792 200.416 101.223 249.623 156.459 234.151Z" fill="url(#paint21_radial_4_2706)"/>
<path d="M156.459 234.151C190.854 224.516 202.765 200.557 212.46 180.65C225.478 153.916 253.351 142.032 267.102 153.125C280.479 163.916 302.48 190.416 315.077 240.832C326.867 288.019 328.399 330.451 308.028 331.053C287.657 331.655 245.671 299.269 180.309 308.973C109.979 319.416 76.7288 399.916 57.5522 393.409C36.3524 386.216 12.3417 317.349 9.07724 277.624C5.97875 239.915 13.7744 212.6 26.3491 209.874C69.9792 200.416 101.223 249.623 156.459 234.151Z" stroke="#C48427" stroke-width="8.12" stroke-linecap="round" stroke-linejoin="round"/>
<path d="M156.459 234.151C190.854 224.516 202.765 200.557 212.46 180.65C225.478 153.916 253.351 142.032 267.102 153.125C280.479 163.916 302.48 190.416 315.077 240.832C326.867 288.019 328.399 330.451 308.028 331.053C287.657 331.655 245.671 299.269 180.309 308.973C109.979 319.416 76.7288 399.916 57.5522 393.409C36.3524 386.216 12.3417 317.349 9.07724 277.624C5.97875 239.915 13.7744 212.6 26.3491 209.874C69.9792 200.416 101.223 249.623 156.459 234.151Z" fill="url(#paint22_linear_4_2706)"/>
<g opacity="0.2">
<path d="M271.756 320.634C251.73 313.166 233.23 306.916 205.41 306.173" stroke="#FFFB00" stroke-width="8.12" stroke-linecap="round" stroke-linejoin="round"/>
</g>
<g opacity="0.2">
<path d="M142.734 322.413C125.981 332.915 108.48 343.916 88.7527 369.748" stroke="#FFFB00" stroke-width="8.12" stroke-linecap="round" stroke-linejoin="round"/>
</g>
<g opacity="0.33">
<path d="M266.609 268.149C266.925 248.256 266.39 226.963 243.02 192.387C226.48 167.916 212.481 222.415 188.093 231.494C184.981 243.915 191.051 280.293 206.314 263.621C222.981 245.416 241.482 240.916 253.728 270.664C258.187 281.496 266.346 284.771 266.609 268.149Z" fill="url(#paint23_radial_4_2706)"/>
<path d="M266.609 268.149C266.925 248.256 266.39 226.963 243.02 192.387C226.48 167.916 212.481 222.415 188.093 231.494C184.981 243.915 191.051 280.293 206.314 263.621C222.981 245.416 241.482 240.916 253.728 270.664C258.187 281.496 266.346 284.771 266.609 268.149Z" fill="url(#paint24_linear_4_2706)"/>
</g>
<g opacity="0.33">
<path d="M129.149 252.294C91.9809 248.166 58.7311 221.916 56.1147 239.979C53.1046 260.764 56.2494 298.038 67.7756 299.436C79.3019 300.835 89.5981 290.906 98.0245 285.787C110.981 277.917 122.731 284.917 130.705 285.187C156.923 286.078 129.149 252.294 129.149 252.294Z" fill="url(#paint25_linear_4_2706)"/>
<path d="M129.149 252.294C91.9809 248.166 58.7311 221.916 56.1147 239.979C53.1046 260.764 56.2494 298.038 67.7756 299.436C79.3019 300.835 89.5981 290.906 98.0245 285.787C110.981 277.917 122.731 284.917 130.705 285.187C156.923 286.078 129.149 252.294 129.149 252.294Z" fill="url(#paint26_linear_4_2706)"/>
</g>
<g opacity="0.66">
<path d="M13.2181 231.533C11.3681 247.128 11.5129 274.851 14.9359 298.139C20.6781 337.203 33.9369 381.673 52.3692 393.979C46.7452 384.18 52.5109 372.294 57.7282 368.509C16.8996 293.936 23.6472 223.46 33.5142 212.667C13.2695 213.732 13.6847 227.599 13.2181 231.533Z" fill="url(#paint27_linear_4_2706)"/>
</g>
<g opacity="0.67">
<path d="M240.596 165.601C252.725 175.413 287.479 223.416 280.487 290.94" stroke="#FFFDC7" stroke-width="10.7407" stroke-linecap="round" stroke-linejoin="round"/>
</g>
<path d="M89.605 291.791C80.8807 298.453 62.9194 304.629 68.9802 316.916C78.2308 335.666 99.9801 335.666 126.48 312.666C152.98 289.666 132.081 287.224 129.23 286.166C111.73 279.666 103.355 281.291 89.605 291.791Z" fill="url(#paint28_linear_4_2706)"/>
<path d="M218.705 253.914C209.981 260.577 193.732 267.52 199.83 279.789C206.23 292.666 204.479 282.917 241.079 289.29C256.336 291.946 257.73 280.667 253.58 270.789C246.031 252.825 232.455 243.414 218.705 253.914Z" fill="url(#paint29_linear_4_2706)"/>
<path d="M195.799 299.725C214.65 297.384 311.915 314.605 311.821 320.545C311.596 334.75 262.999 297.249 195.6 300.011L195.799 299.725Z" fill="#FCDF39"/>
<path d="M195.799 299.725C214.65 297.384 311.915 314.605 311.821 320.545C311.596 334.75 262.999 297.249 195.6 300.011L195.799 299.725Z" stroke="#995605" stroke-width="8.12" stroke-linecap="round" stroke-linejoin="round"/>
<path d="M145.661 313.451C121.676 327.263 54.3759 381.383 59.5613 387.406C64.7467 393.429 84.2497 351.249 146.63 312.998L145.661 313.451Z" fill="#FCDF39"/>
<path d="M145.661 313.451C121.676 327.263 54.3759 381.383 59.5613 387.406C64.7467 393.429 84.2497 351.249 146.63 312.998L145.661 313.451Z" stroke="#995605" stroke-width="8.12" stroke-linecap="round" stroke-linejoin="round"/>
<path d="M53.4147 382.283C54.0362 374.359 80.7413 348.609 128.63 315.152" stroke="#FFFC00" stroke-width="6.09" stroke-linecap="round" stroke-linejoin="round"/>
<path d="M217.197 292.467C244.674 293.365 306.484 306.41 313.89 312.388" stroke="#FFFC00" stroke-width="6.09" stroke-linecap="round" stroke-linejoin="round"/>
<mask id="mask5_4_2706" style="mask-type:luminance" maskUnits="userSpaceOnUse" x="105" y="217" width="119" height="101">
<path d="M109.682 284.756C116.228 308.916 124.479 315.416 133.666 317.022C152.229 302.665 192.729 294.915 219.535 297.464C223.729 294.666 226.012 285.55 216.994 253.166C210.729 230.665 202.229 220.916 194.96 217.577C172.729 230.166 125.229 238.165 111.479 238.441C105.729 242.415 102.952 259.922 109.682 284.756Z" fill="url(#paint30_radial_4_2706)"/>
</mask>
<g mask="url(#mask5_4_2706)">
<path d="M109.682 284.756C116.228 308.916 124.479 315.416 133.666 317.022C152.229 302.665 192.729 294.915 219.535 297.464C223.729 294.666 226.012 285.55 216.994 253.166C210.729 230.665 202.229 220.916 194.96 217.577C172.729 230.166 125.229 238.165 111.479 238.441C105.729 242.415 102.952 259.922 109.682 284.756Z" fill="url(#paint31_radial_4_2706)" fill-opacity="0.7"/>
</g>
<path d="M125.582 281.64C133.224 307.205 144.501 324.999 163.132 324.24C178.719 323.604 190.431 318.601 195.87 313.224C201.259 307.897 211.853 289.034 203.234 262.873C194.541 236.483 182.589 216.678 169.538 219.276C156.25 221.921 138.544 227.416 130.618 233.178C122.591 239.012 117.689 255.241 125.582 281.64Z" fill="url(#paint32_radial_4_2706)"/>
<path d="M125.905 281.392C133.536 306.961 142.935 328.477 165.235 324.234C187.084 320.076 187.519 319.574 195.865 313.325C204.134 307.133 211.326 288.942 202.39 262.876C193.376 236.582 185.458 215.667 166.706 219.976C147.614 224.362 144.407 225.408 132.501 232.364C120.443 239.407 118.024 254.99 125.905 281.392Z" stroke="#CB9343" stroke-width="8.12" stroke-linecap="round" stroke-linejoin="round"/>
<g opacity="0.66">
<path d="M119.722 274.33C128.969 291.902 145.395 302.383 170.752 296.245C195.515 290.251 204.846 267.222 204.44 257.009C213.101 282.294 211.894 296.285 205.367 307.85C200.544 316.394 192.579 323.01 177.295 327.019C137.662 337.414 130.45 311.986 119.722 274.33Z" fill="url(#paint33_linear_4_2706)"/>
</g>
<path d="M133.908 262.662C135.528 274.568 138.981 283.666 152.863 281.099C169.162 278.086 176.436 275.407 183.018 271.895C189.554 268.406 188.48 260.916 184.005 248.58C179.181 235.286 175.231 228.166 164.223 230.797C149.954 234.206 150.056 234.234 140.885 238.376C131.629 242.556 132.48 252.165 133.908 262.662Z" fill="url(#paint34_linear_4_2706)"/>
</g>
</g>
<defs>
<linearGradient id="paint0_linear_4_2706" x1="261.595" y1="268.679" x2="261.79" y2="516.804" gradientUnits="userSpaceOnUse">
<stop stop-color="#E82C97"/>
<stop offset="0.5" stop-color="#D52C8C"/>
<stop offset="1" stop-color="#C22C81"/>
</linearGradient>
<linearGradient id="paint1_linear_4_2706" x1="267.184" y1="518.536" x2="261.587" y2="254.643" gradientUnits="userSpaceOnUse">
<stop stop-color="#C22C81"/>
<stop offset="0.5" stop-color="#DF3394"/>
<stop offset="1" stop-color="#FC3BA8"/>
</linearGradient>
<radialGradient id="paint2_radial_4_2706" cx="0" cy="0" r="1" gradientUnits="userSpaceOnUse" gradientTransform="translate(262.79 269.83) scale(146.237 146.237)">
<stop stop-color="white"/>
<stop offset="0.5" stop-color="white" stop-opacity="0.5"/>
<stop offset="1" stop-color="white" stop-opacity="0"/>
</radialGradient>
<radialGradient id="paint3_radial_4_2706" cx="0" cy="0" r="1" gradientUnits="userSpaceOnUse" gradientTransform="translate(262.79 269.83) scale(146.237 146.237)">
<stop stop-color="#FE45B3"/>
<stop offset="0.88" stop-color="#F44DB1"/>
<stop offset="1" stop-color="#EA55B0"/>
</radialGradient>
<linearGradient id="paint4_linear_4_2706" x1="151.415" y1="108.874" x2="149.926" y2="44.3305" gradientUnits="userSpaceOnUse">
<stop stop-color="white" stop-opacity="0"/>
<stop offset="0.69" stop-color="white" stop-opacity="0.5"/>
<stop offset="1" stop-color="white"/>
</linearGradient>
<linearGradient id="paint5_linear_4_2706" x1="151.415" y1="108.874" x2="149.926" y2="44.3305" gradientUnits="userSpaceOnUse">
<stop stop-color="white"/>
<stop offset="0.5" stop-color="#FFFFFD"/>
<stop offset="1" stop-color="#FFFFFB"/>
</linearGradient>
<linearGradient id="paint6_linear_4_2706" x1="370.597" y1="109.04" x2="372.087" y2="44.4965" gradientUnits="userSpaceOnUse">
<stop stop-color="white" stop-opacity="0"/>
<stop offset="0.69" stop-color="white" stop-opacity="0.5"/>
<stop offset="1" stop-color="white"/>
</linearGradient>
<linearGradient id="paint7_linear_4_2706" x1="370.597" y1="109.04" x2="372.087" y2="44.4965" gradientUnits="userSpaceOnUse">
<stop stop-color="white"/>
<stop offset="0.5" stop-color="#FFFFFD"/>
<stop offset="1" stop-color="#FFFFFB"/>
</linearGradient>
<linearGradient id="paint8_linear_4_2706" x1="377.289" y1="267.962" x2="172.671" y2="267.759" gradientUnits="userSpaceOnUse">
<stop stop-color="#FFF23E"/>
<stop offset="0.2" stop-color="#FEF251"/>
<stop offset="0.39" stop-color="#FDF263"/>
<stop offset="0.52" stop-color="#FDF263"/>
<stop offset="0.65" stop-color="#FDF263"/>
<stop offset="0.83" stop-color="#FCE94E"/>
<stop offset="1" stop-color="#FCDF39"/>
</linearGradient>
<linearGradient id="paint9_linear_4_2706" x1="433" y1="260.999" x2="463.041" y2="277.965" gradientUnits="userSpaceOnUse">
<stop stop-color="#995605" stop-opacity="0"/>
<stop offset="0.5" stop-color="#B56703" stop-opacity="0.5"/>
<stop offset="1" stop-color="#D07900"/>
</linearGradient>
<linearGradient id="paint10_linear_4_2706" x1="140.563" y1="338.116" x2="172.745" y2="423.172" gradientUnits="userSpaceOnUse">
<stop stop-color="#D0A618"/>
<stop offset="0.23" stop-color="#E8BA0C"/>
<stop offset="0.46" stop-color="#FFCE00"/>
<stop offset="0.52" stop-color="#FBCF23"/>
<stop offset="0.58" stop-color="#F7D046"/>
<stop offset="0.79" stop-color="#E9BB41"/>
<stop offset="1" stop-color="#DBA53C"/>
</linearGradient>
<linearGradient id="paint11_linear_4_2706" x1="171.967" y1="394.046" x2="129.262" y2="392.936" gradientUnits="userSpaceOnUse">
<stop stop-color="#FFFD1D"/>
<stop offset="0.5" stop-color="#FFFC0F" stop-opacity="0.5"/>
<stop offset="1" stop-color="#FFFC00" stop-opacity="0"/>
</linearGradient>
<linearGradient id="paint12_linear_4_2706" x1="133.949" y1="388.988" x2="131.795" y2="429.411" gradientUnits="userSpaceOnUse">
<stop stop-color="#C29B18" stop-opacity="0"/>
<stop offset="0.5" stop-color="#C29B18" stop-opacity="0.5"/>
<stop offset="1" stop-color="#C29B18"/>
</linearGradient>
<linearGradient id="paint13_linear_4_2706" x1="224.16" y1="317.12" x2="267.963" y2="395.173" gradientUnits="userSpaceOnUse">
<stop stop-color="#D0A618"/>
<stop offset="0.23" stop-color="#E8BA0C"/>
<stop offset="0.46" stop-color="#FFCE00"/>
<stop offset="0.52" stop-color="#FBCF23"/>
<stop offset="0.58" stop-color="#F7D046"/>
<stop offset="0.79" stop-color="#E9BB41"/>
<stop offset="1" stop-color="#DBA53C"/>
</linearGradient>
<linearGradient id="paint14_linear_4_2706" x1="208.783" y1="373.836" x2="242.531" y2="355.317" gradientUnits="userSpaceOnUse">
<stop stop-color="#FFFD1D"/>
<stop offset="0.5" stop-color="#FFFC0F" stop-opacity="0.5"/>
<stop offset="1" stop-color="#FFFC00" stop-opacity="0"/>
</linearGradient>
<linearGradient id="paint15_linear_4_2706" x1="261.949" y1="352.31" x2="296.385" y2="386.996" gradientUnits="userSpaceOnUse">
<stop stop-color="#C29B18" stop-opacity="0"/>
<stop offset="0.5" stop-color="#C29B18" stop-opacity="0.5"/>
<stop offset="1" stop-color="#C29B18"/>
</linearGradient>
<linearGradient id="paint16_linear_4_2706" x1="241.332" y1="318.759" x2="241.253" y2="342.12" gradientUnits="userSpaceOnUse">
<stop stop-color="#FFFED5" stop-opacity="0"/>
<stop offset="0.5" stop-color="#FFFED5" stop-opacity="0.5"/>
<stop offset="1" stop-color="#FFFED4"/>
</linearGradient>
<linearGradient id="paint17_linear_4_2706" x1="201.119" y1="337.165" x2="229.358" y2="416.768" gradientUnits="userSpaceOnUse">
<stop stop-color="white" stop-opacity="0.33"/>
<stop offset="0.15" stop-color="white" stop-opacity="0.665"/>
<stop offset="0.31" stop-color="white"/>
<stop offset="0.48" stop-color="white"/>
<stop offset="0.65" stop-color="white"/>
<stop offset="0.82" stop-color="white" stop-opacity="0.665"/>
<stop offset="1" stop-color="white" stop-opacity="0.33"/>
</linearGradient>
<linearGradient id="paint18_linear_4_2706" x1="201.119" y1="337.165" x2="229.358" y2="416.768" gradientUnits="userSpaceOnUse">
<stop stop-color="#FFFD3C"/>
<stop offset="0.5" stop-color="#FFFD51"/>
<stop offset="1" stop-color="#FFFD65"/>
</linearGradient>
<linearGradient id="paint19_linear_4_2706" x1="146.558" y1="356.049" x2="154.3" y2="399.557" gradientUnits="userSpaceOnUse">
<stop stop-color="#CE7500"/>
<stop offset="0.5" stop-color="#CE7500" stop-opacity="0.61"/>
<stop offset="1" stop-color="#CE7500" stop-opacity="0.22"/>
</linearGradient>
<linearGradient id="paint20_linear_4_2706" x1="333.514" y1="264.51" x2="315.634" y2="267.432" gradientUnits="userSpaceOnUse">
<stop stop-color="#DF8F00" stop-opacity="0"/>
<stop offset="0.5" stop-color="#DF8F00" stop-opacity="0.5"/>
<stop offset="1" stop-color="#DF8F00"/>
</linearGradient>
<radialGradient id="paint21_radial_4_2706" cx="0" cy="0" r="1" gradientUnits="userSpaceOnUse" gradientTransform="translate(168.437 266.416) rotate(-16.7) scale(152.503 152.503)">
<stop offset="0.82" stop-color="#FFFC00"/>
<stop offset="0.91" stop-color="#FAE204"/>
<stop offset="1" stop-color="#F6C807"/>
</radialGradient>
<linearGradient id="paint22_linear_4_2706" x1="103.095" y1="287.283" x2="222.224" y2="248.59" gradientUnits="userSpaceOnUse">
<stop stop-color="#C48427" stop-opacity="0"/>
<stop offset="0.18" stop-color="#C08631" stop-opacity="0.5"/>
<stop offset="0.36" stop-color="#BB873C"/>
<stop offset="0.48" stop-color="#B78843"/>
<stop offset="0.6" stop-color="#B38949"/>
<stop offset="0.8" stop-color="#B38949" stop-opacity="0.5"/>
<stop offset="1" stop-color="#B38949" stop-opacity="0"/>
</linearGradient>
<radialGradient id="paint23_radial_4_2706" cx="0" cy="0" r="1" gradientUnits="userSpaceOnUse" gradientTransform="translate(227.173 255.085) rotate(-16.7) scale(87.0125 87.0125)">
<stop stop-color="#F7A626"/>
<stop offset="0.5" stop-color="#F7A626" stop-opacity="0.5"/>
<stop offset="1" stop-color="#F7A626" stop-opacity="0"/>
</radialGradient>
<linearGradient id="paint24_linear_4_2706" x1="248.788" y1="228.457" x2="202.167" y2="246.725" gradientUnits="userSpaceOnUse">
<stop stop-color="#F7A626" stop-opacity="0"/>
<stop offset="0.5" stop-color="#F7A626" stop-opacity="0.5"/>
<stop offset="1" stop-color="#F7A626"/>
</linearGradient>
<linearGradient id="paint25_linear_4_2706" x1="55.702" y1="252.478" x2="107.704" y2="274.454" gradientUnits="userSpaceOnUse">
<stop stop-color="#F7A626" stop-opacity="0"/>
<stop offset="0.5" stop-color="#F7A626" stop-opacity="0.5"/>
<stop offset="1" stop-color="#F7A626"/>
</linearGradient>
<linearGradient id="paint26_linear_4_2706" x1="76.6214" y1="269.446" x2="126.737" y2="268.481" gradientUnits="userSpaceOnUse">
<stop stop-color="#F7A626" stop-opacity="0"/>
<stop offset="0.5" stop-color="#F7A626" stop-opacity="0.5"/>
<stop offset="1" stop-color="#F7A626"/>
</linearGradient>
<linearGradient id="paint27_linear_4_2706" x1="27.3326" y1="345.824" x2="-2.06942" y2="353.122" gradientUnits="userSpaceOnUse">
<stop stop-color="#995605" stop-opacity="0"/>
<stop offset="0.5" stop-color="#995605" stop-opacity="0.5"/>
<stop offset="1" stop-color="#995605"/>
</linearGradient>
<linearGradient id="paint28_linear_4_2706" x1="45.1099" y1="325.726" x2="130.107" y2="300.369" gradientUnits="userSpaceOnUse">
<stop stop-color="#FFFFA5" stop-opacity="0"/>
<stop offset="0.5" stop-color="#FFFF9F" stop-opacity="0.5"/>
<stop offset="1" stop-color="#FFFF98"/>
</linearGradient>
<linearGradient id="paint29_linear_4_2706" x1="217.109" y1="294.524" x2="231.063" y2="259.118" gradientUnits="userSpaceOnUse">
<stop stop-color="#FFFFA5" stop-opacity="0"/>
<stop offset="0.5" stop-color="#FFFF9F" stop-opacity="0.5"/>
<stop offset="1" stop-color="#FFFF98"/>
</linearGradient>
<radialGradient id="paint30_radial_4_2706" cx="0" cy="0" r="1" gradientUnits="userSpaceOnUse" gradientTransform="translate(163.008 268.521) rotate(-16.7) scale(59.4942 59.4942)">
<stop offset="0.5" stop-color="white"/>
<stop offset="0.88" stop-color="white" stop-opacity="0.5"/>
<stop offset="1" stop-color="white" stop-opacity="0"/>
</radialGradient>
<radialGradient id="paint31_radial_4_2706" cx="0" cy="0" r="1" gradientUnits="userSpaceOnUse" gradientTransform="translate(163.008 268.521) rotate(-16.7) scale(59.4942 59.4942)">
<stop offset="0.5" stop-color="#F7A626"/>
<stop offset="0.75" stop-color="#F7A626"/>
<stop offset="1" stop-color="#F7A626"/>
</radialGradient>
<radialGradient id="paint32_radial_4_2706" cx="0" cy="0" r="1" gradientUnits="userSpaceOnUse" gradientTransform="translate(164.692 269.994) rotate(-16.7) scale(43.8397 63.5358)">
<stop offset="0.55" stop-color="#FFFC00"/>
<stop offset="0.78" stop-color="#FAE204"/>
<stop offset="1" stop-color="#F6C807"/>
</radialGradient>
<linearGradient id="paint33_linear_4_2706" x1="168.973" y1="296.037" x2="175.137" y2="321.123" gradientUnits="userSpaceOnUse">
<stop stop-color="#DF8F00" stop-opacity="0"/>
<stop offset="0.5" stop-color="#DF8F00" stop-opacity="0.5"/>
<stop offset="1" stop-color="#DF8F00"/>
</linearGradient>
<linearGradient id="paint34_linear_4_2706" x1="167.805" y1="280.661" x2="161.683" y2="258.978" gradientUnits="userSpaceOnUse">
<stop stop-color="#FFFF5E" stop-opacity="0"/>
<stop offset="0.5" stop-color="#FFFF5E" stop-opacity="0.5"/>
<stop offset="1" stop-color="#FFFF5E"/>
</linearGradient>
<clipPath id="clip0_4_2706">
<rect width="512" height="512" fill="white"/>
</clipPath>
</defs>
</svg>
