<svg width="512" height="512" viewBox="0 0 512 512" fill="none" xmlns="http://www.w3.org/2000/svg">
<g clip-path="url(#clip0_4_2385)">
<mask id="mask0_4_2385" style="mask-type:luminance" maskUnits="userSpaceOnUse" x="0" y="0" width="512" height="512">
<path d="M512 0H0V512H512V0Z" fill="white"/>
</mask>
<g mask="url(#mask0_4_2385)">
<path d="M454.54 440.992L449.937 445.595C444.857 450.675 436.62 450.675 431.54 445.595L240.445 254.5C234.094 248.149 234.094 237.851 240.445 231.5C246.796 225.149 257.094 225.149 263.445 231.5L454.54 422.595C459.62 427.675 459.62 435.912 454.54 440.992Z" fill="url(#paint0_linear_4_2385)"/>
<g opacity="0.5">
<path d="M328.971 308.26C328.721 311.933 361.449 348.535 375.894 351.522C383.117 353.016 369.062 337.684 356.81 325.483C344.558 313.282 329.323 303.088 328.971 308.26Z" fill="#BC5D28"/>
</g>
<g opacity="0.5">
<path d="M403.493 383.381C401.135 384.866 411.909 395.074 436.094 419.322C461.493 444.787 461.556 430.049 449.516 417.571C437.476 405.093 409.404 379.66 403.493 383.381Z" fill="#BC5D28"/>
</g>
<g opacity="0.5">
<path d="M435.588 427.066C425.862 418.092 409.548 400.672 406.672 402.871C403.796 405.07 437.165 440.805 442.2 441.245C447.235 441.685 449.481 439.885 435.588 427.066Z" fill="#BC5D28"/>
</g>
<g opacity="0.5">
<path d="M303.252 310.824C306.402 307.093 309.282 310.12 330.189 330.924C346.709 347.363 351.811 356.439 361.525 368.373C371.239 380.307 378.164 392.219 345.918 358.79C326.026 338.169 299.441 315.338 303.252 310.824Z" fill="#EFB57B"/>
</g>
<g opacity="0.5">
<path d="M309.282 311.534C319.572 321.816 329.018 330.178 347.609 347.862C366.2 365.546 357.3 344.182 322.844 310.561C287.835 276.401 294.901 297.163 309.282 311.534Z" fill="#BC5D28"/>
</g>
<g opacity="0.5">
<path d="M307.87 301.972C334.869 325.359 359.565 349.757 379.676 367.354C399.787 384.951 443.212 441.005 447.815 436.402C452.418 431.799 445.875 429.265 423.742 407.726C401.61 386.186 384.826 364.676 365.78 347.99C346.734 331.304 316.978 298.312 316.978 298.312L307.87 301.972Z" fill="#EFB57B"/>
</g>
<g opacity="0.4">
<path d="M309.686 323.742C309.686 323.742 325.463 316.519 332.686 300.742L321.596 289.652L298.024 312.08L309.686 323.742Z" fill="#91410A"/>
</g>
<path d="M454.54 440.992L449.937 445.595C444.857 450.675 436.62 450.675 431.54 445.595L240.445 254.5C234.094 248.149 234.094 237.851 240.445 231.5C246.796 225.149 257.094 225.149 263.445 231.5L454.54 422.595C459.62 427.675 459.62 435.912 454.54 440.992Z" stroke="#813F0E" stroke-width="8" stroke-linecap="round" stroke-linejoin="round"/>
<path d="M454.54 440.992L449.937 445.595C444.857 450.675 436.62 450.675 431.54 445.595L240.446 254.5C234.095 248.149 234.095 237.852 240.446 231.501" stroke="#7C3505" stroke-width="8" stroke-linecap="round" stroke-linejoin="round"/>
<g opacity="0.5">
<path d="M364.992 367.245C372.618 375.44 391.137 396.954 399.743 401.996C408.349 407.038 391.458 393.373 380.668 377.07C369.878 360.767 351.276 352.505 364.992 367.245Z" fill="#BC5D28"/>
</g>
<path d="M310.472 87.8019C370.45 146.329 371.628 242.397 313.101 302.375C254.574 362.353 158.506 363.531 98.528 305.004C38.55 246.477 37.372 150.409 95.899 90.4309C154.426 30.4529 250.494 29.2749 310.472 87.8019Z" fill="url(#paint1_radial_4_2385)"/>
<path d="M186.752 53.46C253.425 56.789 291 104.999 295.249 160.798C298.715 206.319 276.999 259 214.79 262.137C155.072 265.148 149.943 209.762 178.36 192.696C201.999 178.5 202.471 197.734 202.471 197.734C199.124 195.725 178.499 195 177.722 213.768C177.022 230.666 193 252.5 225.071 249.603C250.424 247.313 308 203.5 272.383 129.001C248.686 79.433 164.499 47.5 113.367 79.718C124.499 69.5 114.499 75.5 128.272 64.248C146.999 56.5 157.5 51.999 186.752 53.46Z" fill="#FFD98D"/>
<path d="M269.061 159.543C279.599 192.428 263.649 233.311 228.925 241.527C197 249.081 183.417 221.738 189.501 210.138C195.587 198.534 206.605 200.162 206.605 200.162C239.962 207.158 242.337 149.213 214.945 132.837C187.549 116.459 117.05 140.486 94.3461 195.616C71.6421 250.746 103.221 294.356 103.221 294.356L91.2011 298.857C52.0001 266.999 51.8281 204.08 51.8301 204.066C53.7801 158.816 81.4861 100.128 153.645 90.9529C226.241 81.722 257.689 124.056 269.061 159.543Z" fill="url(#paint2_radial_4_2385)"/>
<path d="M246.88 147.198C262.252 168.971 261.018 204.783 240.084 222.876C223.277 237.403 204.106 230.247 200.856 218.863C197.709 207.842 202.436 201.597 202.436 201.597C226.188 190.658 213.045 156.168 179.16 154.725C145.275 153.282 100.927 207 127.201 265.798C153.477 324.601 208.166 343.836 208.166 343.836C208.166 343.836 209.932 351.639 193.499 351.639C164.691 351.639 116.762 324.64 116.748 324.626C84.1858 297.593 71.3108 275.994 69.9818 239.847C68.6528 203.7 87.6268 143.233 138.986 120.531C190.336 97.8329 229.168 122.11 246.88 147.198Z" fill="url(#paint3_radial_4_2385)"/>
<path d="M344.862 249.246C317.946 336.754 224.919 350.381 224.891 350.381C202.794 352.693 172.915 352.551 133.685 319.19C94.4549 285.829 78.8489 211.516 117.45 162.597C154.308 115.886 214.195 123.406 235.435 151.12C260.251 183.5 236.094 218.744 219.23 219.155C202.526 219.562 203.436 201.097 203.436 201.097C233 178.788 188.798 155.294 161.596 171.505C134.401 187.712 110.708 252.279 175.802 291.14C240.898 330.003 315.979 250.751 315.979 250.751L344.862 249.246Z" fill="url(#paint4_radial_4_2385)"/>
<g opacity="0.5">
<path d="M228.184 161.37C246 189.75 234 206.499 220.73 209.905C204.547 214.058 204.186 202.347 204.186 202.347C204.193 202.34 204.193 202.34 204.2 202.333C205.415 209.595 219.298 197.987 222.049 191.638C225.25 184.249 214.75 147.25 174.251 158.963C135.623 170.135 128 230.75 149.258 270.219C184.915 336.423 323.641 287.63 323.641 287.63C316 296.999 300.5 316 287.434 326.94C242.5 340.5 187.046 333.045 151.007 301.188C115.165 269.505 111.717 210.931 126.95 183.847C156.25 131.75 209.618 131.794 228.184 161.37Z" fill="white"/>
</g>
<path d="M344.705 146.391C371 214 334.906 272.925 334.899 272.932C272.582 360.208 156.967 324.902 131.11 259.365C111.351 209.284 137.357 165.144 170.343 152.381C203.315 139.618 238.107 169.298 228.458 192.494C220.831 210.831 206.525 206.513 203.935 200.598C203.935 200.598 209.733 172.115 183.535 183.238C157.33 194.368 161.325 218.106 167.434 242.925C173.543 267.745 216.989 293.413 276.711 244.608C319.859 209.352 346.72 176.931 344.705 146.391Z" fill="url(#paint5_radial_4_2385)"/>
<g opacity="0.5">
<path d="M331.705 121.391C342.184 137.258 349.265 153.205 353.182 172.495C352.213 186.63 345.275 241.072 298.132 277.834C243.289 320.6 174.069 304.266 149.363 260.51C124.657 216.754 149.602 176.642 168.144 165.78C196.92 148.923 220.715 166.34 219.742 179.59C218.593 195.237 203.443 198.576 203.443 198.576C203.62 197.635 208.787 170.301 183.036 181.238C156.83 192.368 160.826 216.106 166.935 240.925C173.044 265.745 216.486 291.41 276.211 242.608C319.359 207.352 333.72 151.931 331.705 121.391Z" fill="#D9FF39"/>
</g>
<path d="M310.921 91.7369C393.501 175 314.302 276.296 246.181 292.778C182.524 308.18 137.538 249.626 147.429 207.15C157.311 164.714 197.188 156.698 210.234 171.116C223.273 185.527 204.436 199.598 204.436 199.598C199.75 188.5 184.935 184.727 174.55 204.113C163.72 224.33 191.464 268.528 241.499 249.408C291.541 230.281 314 138 242.528 83.7319C188.351 42.5959 138.256 62.4569 116.791 74.7969C109.738 78.8509 105.776 82.0939 105.776 82.0939C136.5 54.9999 168.5 43.9999 204.499 44.6629C271.599 45.8979 310.921 91.7369 310.921 91.7369Z" fill="url(#paint6_radial_4_2385)"/>
<g opacity="0.5">
<path d="M291.297 131.019C313.69 177.83 292.189 230.887 253.623 254.321C215.057 277.755 180.721 253.672 171.085 235.777C153.55 203.214 177.569 179.524 193.313 183.668C207.896 187.506 203.626 199.983 203.442 200.577C204.078 189.037 185.671 183.247 175.3 202.613C164.474 222.829 190.466 269.033 240.499 249.909C290.541 230.782 315.999 140.001 244.777 85.232C173.135 30.141 109.276 76.595 109.276 76.595C115.435 70.719 125.096 66.359 132.167 61.579C203 29.001 267.25 80.751 291.297 131.019Z" fill="#64B9FF"/>
</g>
<path d="M310.472 87.8019C370.45 146.329 371.628 242.397 313.101 302.375C254.574 362.353 158.506 363.531 98.528 305.004C38.55 246.477 37.372 150.409 95.899 90.4309C154.426 30.4529 250.494 29.2749 310.472 87.8019Z" stroke="#C46F00" stroke-width="8" stroke-linecap="round" stroke-linejoin="round"/>
<path d="M346.458 142.709C362.249 184.541 358.939 232.007 336.36 271.559" stroke="#4A7C03" stroke-width="8" stroke-linecap="round" stroke-linejoin="round"/>
<path d="M149.38 337.817C130.931 330.636 113.591 319.703 98.528 305.004C90.128 296.807 82.882 287.875 76.791 278.408" stroke="#5D0089" stroke-width="8" stroke-linecap="round" stroke-linejoin="round"/>
<path d="M82.825 287.101C55.249 250.201 46.605 203.515 57.056 160.462" stroke="#8E0022" stroke-width="8" stroke-linecap="round" stroke-linejoin="round"/>
<path d="M52.8818 190.349C54.3148 154.173 68.6228 118.383 95.8988 90.431C124.755 60.859 162.737 45.581 201.02 44.706" stroke="#B24C00" stroke-width="8" stroke-linecap="round" stroke-linejoin="round"/>
<path d="M111.678 76.345C170.58 30.688 255.619 34.276 310.472 87.802C327.546 104.463 339.856 124.167 347.379 145.215" stroke="#003CA5" stroke-width="8" stroke-linecap="round" stroke-linejoin="round"/>
<g opacity="0.5">
<path d="M341.434 196.403C341.434 272.03 280.127 333.337 204.5 333.337C128.873 333.337 67.5664 272.03 67.5664 196.403C67.5664 120.776 128.873 59.4689 204.5 59.4689C280.127 59.4689 341.434 120.776 341.434 196.403Z" fill="url(#paint7_radial_4_2385)"/>
</g>
<g opacity="0.8">
<path d="M341.434 196.403C341.434 272.03 280.127 333.337 204.5 333.337C128.873 333.337 67.5664 272.03 67.5664 196.403C67.5664 120.776 128.873 59.4689 204.5 59.4689C280.127 59.4689 341.434 120.776 341.434 196.403Z" fill="url(#paint8_linear_4_2385)"/>
</g>
</g>
</g>
<defs>
<linearGradient id="paint0_linear_4_2385" x1="424.94" y1="316.656" x2="447.94" y2="293.656" gradientUnits="userSpaceOnUse">
<stop stop-color="#B26835"/>
<stop offset="0.45" stop-color="#C47A43"/>
<stop offset="1" stop-color="#D68C50"/>
</linearGradient>
<radialGradient id="paint1_radial_4_2385" cx="0" cy="0" r="1" gradientUnits="userSpaceOnUse" gradientTransform="translate(152.211 223.908) rotate(-90) scale(151.738)">
<stop stop-color="#EFC320"/>
<stop offset="0.58" stop-color="#F7AD20"/>
<stop offset="1" stop-color="#FF9820"/>
</radialGradient>
<radialGradient id="paint2_radial_4_2385" cx="0" cy="0" r="1" gradientUnits="userSpaceOnUse" gradientTransform="translate(139.999 261.015) rotate(-90) scale(141.607)">
<stop offset="0.41" stop-color="#FF666B"/>
<stop offset="0.75" stop-color="#E84B4E"/>
<stop offset="1" stop-color="#D13031"/>
</radialGradient>
<radialGradient id="paint3_radial_4_2385" cx="0" cy="0" r="1" gradientUnits="userSpaceOnUse" gradientTransform="translate(168.105 262.244) rotate(-90) scale(143.631 143.631)">
<stop stop-color="#AC53B1"/>
<stop offset="0.61" stop-color="#993EB4"/>
<stop offset="1" stop-color="#862AB7"/>
</radialGradient>
<radialGradient id="paint4_radial_4_2385" cx="0" cy="0" r="1" gradientUnits="userSpaceOnUse" gradientTransform="translate(204.215 226.617) rotate(-90) scale(127.28 127.28)">
<stop stop-color="#FFFF96"/>
<stop offset="0.52" stop-color="#FDE663"/>
<stop offset="1" stop-color="#FCCD31"/>
</radialGradient>
<radialGradient id="paint5_radial_4_2385" cx="0" cy="0" r="1" gradientUnits="userSpaceOnUse" gradientTransform="translate(186.413 195.119) rotate(-90) scale(143.217 143.217)">
<stop stop-color="#BAFB48"/>
<stop offset="0.52" stop-color="#97DA30"/>
<stop offset="1" stop-color="#74B918"/>
</radialGradient>
<radialGradient id="paint6_radial_4_2385" cx="0" cy="0" r="1" gradientUnits="userSpaceOnUse" gradientTransform="translate(135.796 194.767) rotate(-90) scale(143.932 143.932)">
<stop offset="0.22" stop-color="#007EFF"/>
<stop offset="0.72" stop-color="#1D70F0"/>
<stop offset="1" stop-color="#3962E1"/>
</radialGradient>
<radialGradient id="paint7_radial_4_2385" cx="0" cy="0" r="1" gradientUnits="userSpaceOnUse" gradientTransform="translate(152.211 223.908) rotate(-90) scale(136.935)">
<stop offset="0.81" stop-color="white" stop-opacity="0"/>
<stop offset="0.9" stop-color="white" stop-opacity="0.5"/>
<stop offset="1" stop-color="white"/>
</radialGradient>
<linearGradient id="paint8_linear_4_2385" x1="222.214" y1="293.911" x2="56.1364" y2="127.83" gradientUnits="userSpaceOnUse">
<stop offset="0.39" stop-color="white" stop-opacity="0"/>
<stop offset="0.69" stop-color="white" stop-opacity="0.5"/>
<stop offset="1" stop-color="white"/>
</linearGradient>
<clipPath id="clip0_4_2385">
<rect width="512" height="512" fill="white"/>
</clipPath>
</defs>
</svg>
