<svg width="512" height="512" viewBox="0 0 512 512" fill="none" xmlns="http://www.w3.org/2000/svg">
<g clip-path="url(#clip0_4_1936)">
<mask id="mask0_4_1936" style="mask-type:luminance" maskUnits="userSpaceOnUse" x="0" y="0" width="512" height="512">
<path d="M512 0H0V512H512V0Z" fill="white"/>
</mask>
<g mask="url(#mask0_4_1936)">
<path d="M241.788 458.224C244.449 458.774 247.054 452.206 243.77 451.662C240.046 451.044 231.874 450.025 231.388 451.279C230.932 452.46 239.127 457.674 241.788 458.224Z" fill="#60AA3A"/>
<path d="M275.406 387.233C276.213 373.506 235.013 369.901 237.636 388.569C237.636 388.569 243.292 396.31 243.292 420.182C243.292 436.731 243.292 465.13 243.292 465.13C243.292 465.13 256.927 469.789 269.158 465.13C269.158 465.13 269.088 436.729 269.158 421.621C269.261 399.514 273.123 393.076 275.406 387.233Z" fill="url(#paint0_linear_4_1936)"/>
<g opacity="0.4">
<path d="M258.539 402.588C257.061 427.37 257.49 465.585 257.585 467.147C251.028 466.806 243.297 465.132 243.297 465.132C243.297 465.132 243.297 436.728 243.297 420.18C243.297 396.308 239.392 392.561 237.639 388.568C238.877 362.434 288.317 384.064 267.557 390.494C264.286 390.313 259.196 391.584 258.539 402.588Z" fill="#297A00"/>
</g>
<path d="M275.406 387.233C276.213 373.506 235.013 369.901 237.636 388.569C237.636 388.569 243.292 396.31 243.292 420.182C243.292 436.731 243.292 465.13 243.292 465.13C243.292 465.13 256.927 469.789 269.158 465.13C269.158 465.13 269.088 436.729 269.158 421.621C269.261 399.514 273.123 393.076 275.406 387.233Z" stroke="#3F7A21" stroke-width="8.24" stroke-linecap="round" stroke-linejoin="round"/>
<path d="M243.293 465.13C243.293 465.13 256.927 469.788 269.158 465.13C269.158 465.13 269.088 436.729 269.158 421.62C269.261 399.514 273.124 393.076 275.406 387.233" stroke="#78CC00" stroke-width="8.24" stroke-linecap="round" stroke-linejoin="round"/>
<path d="M258.899 457.073C257.289 454.884 252.749 456.512 253.62 459.725C254.324 462.325 257.344 465.336 258.204 464.831C259.064 464.326 260.313 458.994 258.899 457.073Z" fill="#C6FF48"/>
<path d="M270.146 422.903C267.438 422.679 265.871 427.422 268.437 429.541C271.004 431.661 283.495 429.948 283.678 428.969C283.862 427.989 272.522 423.099 270.146 422.903Z" fill="#9CE00A"/>
<path d="M254.758 425.477C257.252 423.746 254.598 418.839 251.342 419.534C249.058 420.022 244.681 426.974 245.234 427.804C245.787 428.633 252.798 426.835 254.758 425.477Z" fill="#C6FF48"/>
<path d="M245.368 413.255C248.335 413.209 248.955 407.834 245.538 406.133C242.602 404.67 231.284 407.38 231.37 408.651C231.451 409.866 242.766 413.296 245.368 413.255Z" fill="#60AA3A"/>
<path d="M70.6484 305.678C70.6484 305.678 111.564 299.099 152.777 337.346C169.539 352.903 171.154 358.314 170.3 360.966C166.258 363.091 148.804 354.254 139.434 346.24C116.901 326.969 108.007 305.246 70.6484 305.678Z" fill="#538D1B"/>
<path d="M70.6484 305.678C70.6484 305.678 111.564 299.099 152.777 337.346C169.539 352.903 171.154 358.314 170.3 360.966C166.258 363.091 148.804 354.254 139.434 346.24C116.901 326.969 108.007 305.246 70.6484 305.678Z" stroke="#297A00" stroke-width="8.24" stroke-linecap="round" stroke-linejoin="round"/>
<path d="M169.934 361.118C165.3 362.604 148.545 354.032 139.434 346.241C116.901 326.969 108.007 305.247 70.6484 305.678" stroke="#236000" stroke-width="8.24" stroke-linecap="round" stroke-linejoin="round"/>
<path d="M250.447 114.73C245.069 77.4162 210.819 47.0714 188.17 47.0714C167.237 47.0714 167.617 61.8643 175.711 74.3788C184.479 87.9367 197.95 102.847 192.162 138.171C186.089 175.231 256.644 157.721 250.447 114.73Z" fill="#AC010B"/>
<g opacity="0.4">
<path d="M193.19 121.687C195.359 110.341 186.604 86.6513 175.711 74.3788C203.084 101.586 208.234 55.7513 229.452 68.859C244.284 85.6213 249.949 109.826 193.19 121.687Z" fill="#7B0018"/>
</g>
<g opacity="0.55">
<path d="M240.617 89.7217C237.127 84.4017 215.364 58.1769 191.502 58.4602C177.849 58.6301 174.253 65.1397 174.12 71.6967C167.668 59.8506 168.709 47.0684 188.172 47.0684C210.822 47.0684 236.036 69.8612 240.617 89.7217Z" fill="#FF2638"/>
</g>
<path d="M250.447 114.73C245.069 77.4162 210.819 47.0714 188.17 47.0714C167.237 47.0714 167.617 61.8643 175.711 74.3788C184.479 87.9367 197.95 102.847 192.162 138.171C186.089 175.231 256.644 157.721 250.447 114.73Z" stroke="#68001E" stroke-width="8.24" stroke-linecap="round" stroke-linejoin="round"/>
<path d="M334.503 72.2724C338.753 58.5641 334.863 43.7682 308.218 44.3882C281.573 45.0083 257.512 55.8521 243.982 74.4416C230.452 93.031 236.966 147.648 291.697 132.43C326.684 122.701 331.8 80.9944 334.503 72.2724Z" fill="#AC010B"/>
<g opacity="0.54">
<path d="M329.53 88.1221C332.718 74.5632 331.148 55.4423 305.789 55.6122C261.598 55.9078 238.595 88.7617 238.437 90.7774C238.619 62.4463 281.577 45.0053 308.221 44.3904C334.865 43.7662 343.679 59.3563 329.53 88.1221Z" fill="#FF2638"/>
</g>
<path d="M334.503 72.2724C338.753 58.5641 334.863 43.7682 308.218 44.3882C281.573 45.0083 257.512 55.8521 243.982 74.4416C230.452 93.031 236.966 147.648 291.697 132.43C326.684 122.701 331.8 80.9944 334.503 72.2724Z" stroke="#7F001E" stroke-width="8.24" stroke-linecap="round" stroke-linejoin="round"/>
<path d="M293.455 46.1351C301.964 46.0949 308.711 43.4911 320.856 47.7511C328.615 50.4724 331.319 55.4937 334.028 60.1987C333.272 56.9274 329.462 48.0962 322.224 46.1289C313.268 43.695 304.153 44.1637 293.455 46.1351Z" fill="#FF7A84"/>
<path d="M281.525 48.8027C289.861 45.9661 308.659 42.2324 322.787 46.2061C332.237 48.8635 334.666 55.8799 335.593 59.5055" stroke="#7F001E" stroke-width="8.24" stroke-linecap="round" stroke-linejoin="round"/>
<path d="M300.727 281.228C235.529 241.151 289.384 140.585 345.971 107.946C389.276 82.9674 421.15 95.5592 416.758 100.83C351.404 117.036 311.442 224.936 300.727 281.228Z" fill="#F30017"/>
<path d="M300.727 281.228C235.529 241.151 289.384 140.585 345.971 107.946C389.276 82.9674 421.15 95.5592 416.758 100.83C351.404 117.036 311.442 224.936 300.727 281.228Z" stroke="#7F001E" stroke-width="8.24" stroke-linecap="round" stroke-linejoin="round"/>
<path d="M299.142 93.0176C287.3 73.1581 265.204 64.33 243.982 66.8473C225.505 69.0392 207.561 88.0468 202.314 113.718C196.936 140.036 197.934 218.491 260.947 215.977C337.886 212.906 309.287 110.031 299.142 93.0176Z" fill="#CD020E"/>
<g opacity="0.4">
<path d="M259.918 171.168C211.74 175.16 192.23 136.084 205.04 108.891C236.823 136.811 244.021 90.0615 289.541 82.1707C314.861 101.67 308.087 167.185 259.918 171.168Z" fill="#7B0018"/>
</g>
<g opacity="0.56">
<path d="M302.458 105.93C294.503 98.5188 273.411 71.4607 243.985 79.0776C215.013 86.5616 201.682 123.631 201.275 124.786C200.228 96.3373 220.585 69.4368 243.985 66.8433C265.226 64.4887 297.411 75.0112 302.458 105.93Z" fill="#FF4555"/>
</g>
<path d="M298.969 92.9525C287.098 73.1107 264.989 64.3153 243.771 66.8641C225.297 69.0834 207.381 88.1176 202.173 113.797C196.833 140.123 197.947 218.576 260.957 215.968C337.891 212.784 309.14 109.951 298.969 92.9525Z" stroke="#7F001E" stroke-width="8.24" stroke-linecap="round" stroke-linejoin="round"/>
<path d="M234.068 70.283C237.202 69.7838 244.153 66.7063 255.852 68.3375C274.54 70.9425 281.749 76.3507 288.028 81.7471C278.015 71.2006 265.269 68.6247 255.975 67.5562C247.693 66.604 239.262 68.1102 234.068 70.283Z" fill="#FF7A84"/>
<path d="M231.022 71.1858C238.489 68.1104 244.359 65.5904 256.238 66.7926C269.26 68.1103 282.007 72.4883 290.968 82.915" stroke="#7F001E" stroke-width="8.24" stroke-linecap="round" stroke-linejoin="round"/>
<path d="M354.1 134.739C356.15 111.136 369.395 93.6542 383.429 78.4843C395.082 65.8874 391.15 58.2088 365.058 61.1299C344.025 63.4844 270.63 78.6739 232.583 152.225C193.181 228.396 223.684 362.691 290.341 346.516C352.117 331.526 350.484 176.35 354.1 134.739Z" fill="url(#paint1_radial_4_1936)"/>
<g opacity="0.4">
<path d="M365.483 101.416C359.532 111.143 354.769 122.031 354.101 134.74C350.374 205.616 337 278.394 301.538 288.461C234.553 289.372 218.768 213.637 220.222 207.457C255.484 214 283.114 199.459 297.174 173.174C325.387 120.428 358.615 111.318 365.483 101.416Z" fill="url(#paint2_linear_4_1936)"/>
</g>
<g opacity="0.4">
<path d="M383.431 78.4813C369.39 93.6573 355.091 116.453 351.176 150.986C345.098 104.492 373.349 74.0667 366.546 73.4435C322.397 69.4018 270.629 103.422 270.629 103.422C307.397 71.2146 349.87 62.8325 365.056 61.1288C391.151 58.2047 395.079 65.8875 383.431 78.4813Z" fill="url(#paint3_linear_4_1936)"/>
</g>
<path d="M354.1 134.739C356.15 111.136 369.395 93.6542 383.429 78.4843C395.082 65.8874 391.15 58.2088 365.058 61.1299C344.025 63.4844 270.63 78.6739 232.583 152.225C193.181 228.396 223.684 362.691 290.341 346.516C352.117 331.526 350.484 176.35 354.1 134.739Z" stroke="#B20022" stroke-width="8.24" stroke-linecap="round" stroke-linejoin="round"/>
<path d="M388.152 63.7296C385.186 60.7941 377.739 59.7105 365.058 61.1299C344.025 63.4845 270.63 78.6739 232.583 152.225C193.181 228.396 223.684 362.691 290.341 346.516C352.117 331.527 350.484 176.35 354.1 134.739" stroke="#7F001E" stroke-width="8.24" stroke-linecap="round" stroke-linejoin="round"/>
<path d="M300.352 256.136C301.9 223.545 303.534 196.998 331.984 158.594C355.627 126.678 389.805 108.141 416.759 100.83C416.759 100.83 357.316 117.381 361.087 165.15C364.215 204.784 389.734 245.806 379.094 292.318C368.454 338.83 326.926 367.448 280.227 377.113C233.527 386.777 298.222 300.997 300.352 256.136Z" fill="url(#paint4_linear_4_1936)"/>
<g opacity="0.4">
<mask id="mask1_4_1936" style="mask-type:luminance" maskUnits="userSpaceOnUse" x="302" y="100" width="115" height="268">
<path d="M361.083 165.149C364.216 204.783 389.733 245.809 379.098 292.314C370.98 327.795 344.895 352.859 312.243 367.042C400.706 291.38 358.638 237.353 350.761 186.75C348.383 171.479 349.705 161.622 345.291 161.521C337.11 161.335 303.883 218.718 302.95 224.72C323.465 133.66 397.322 106.184 416.274 100.971C410.635 102.673 357.517 119.912 361.083 165.149Z" fill="url(#paint5_linear_4_1936)"/>
</mask>
<g mask="url(#mask1_4_1936)">
<path d="M361.083 165.149C364.216 204.783 389.733 245.809 379.098 292.314C370.98 327.795 344.895 352.859 312.243 367.042C400.706 291.38 358.638 237.353 350.761 186.75C348.383 171.479 349.705 161.622 345.291 161.521C337.11 161.335 303.883 218.718 302.95 224.72C323.465 133.66 397.322 106.184 416.274 100.971C410.635 102.673 357.517 119.912 361.083 165.149Z" fill="url(#paint6_linear_4_1936)"/>
</g>
</g>
<g opacity="0.4">
<path d="M381.994 270.347C376.178 342.689 326.927 367.449 280.225 377.11C238.092 385.834 292.666 304.65 298.088 270.325C313.295 283.896 358.615 357.541 381.994 270.347Z" fill="url(#paint7_radial_4_1936)"/>
</g>
<path d="M300.352 256.136C301.9 223.545 303.534 196.998 331.984 158.594C355.627 126.678 389.805 108.141 416.759 100.83C416.759 100.83 357.316 117.381 361.087 165.15C364.215 204.784 389.734 245.806 379.094 292.318C368.454 338.83 326.926 367.448 280.227 377.113C233.527 386.777 298.222 300.997 300.352 256.136Z" stroke="#B20022" stroke-width="8.24" stroke-linecap="round" stroke-linejoin="round"/>
<path d="M281.068 315.913C290.186 294.994 299.563 272.756 300.352 256.136C301.9 223.545 303.535 196.998 331.984 158.594C355.627 126.678 389.805 108.141 416.76 100.83C416.76 100.83 415.049 101.305 412.227 102.33" stroke="#7F001E" stroke-width="8.24" stroke-linecap="round" stroke-linejoin="round"/>
<path d="M274.612 100.81C281.106 95.9224 306.083 80.2152 324.641 73.6727C340.736 67.9993 362.991 61.159 381.943 63.2764C369.428 58.3265 341.618 65.7945 324.225 72.648C305.072 80.1958 281.364 92.8322 274.612 100.81Z" fill="#FF7A84"/>
<path d="M266.988 106.842C281.106 93.3473 300.933 80.7295 323.846 71.8713C355.391 59.6751 373.806 60.1294 383.32 61.7318" stroke="#7F001E" stroke-width="8.24" stroke-linecap="round" stroke-linejoin="round"/>
<path d="M141.882 138.314C142.74 144.982 143.824 163.818 133.866 210.021C123.332 258.899 114.361 301.455 143.16 341.263C171.959 381.07 250.862 408.928 290.101 368.297C302.479 355.481 325.911 278.488 258.256 204.661C249.071 194.638 225.489 189.501 216.12 173.56C207.719 159.266 212.354 114.976 181.669 89.0166C150.409 62.5704 119.577 58.0919 102.625 67.057C96.0202 70.5498 87.7267 82.2444 102.126 94.5972C117.337 107.646 139.99 123.615 141.882 138.314Z" fill="url(#paint8_radial_4_1936)"/>
<g opacity="0.4">
<path d="M302.453 320.316C305.568 277.716 274.128 233.081 253.045 216.182C222.72 191.876 204.196 203.711 191.562 160.338C177.685 112.698 133.511 80.0422 139.673 131.536C133.268 118.829 115.025 105.658 102.129 94.5981C87.7283 82.2412 96.0167 70.5466 102.621 67.0549C119.576 58.0949 149.551 63.6209 181.674 89.0155C213.787 114.41 296.282 213.557 304.862 265.169C309.173 291.106 306.598 306.041 302.453 320.316Z" fill="#7B0018"/>
</g>
<g opacity="0.4">
<path d="M278.769 378.079C216.988 421.916 139.738 326.126 191.046 321.409C231.408 368.356 274.671 344.244 282.369 337.827C295.783 326.641 303.606 301.491 302.228 290.106C308.658 305.011 311.913 354.561 278.769 378.079Z" fill="#7B0018"/>
<path d="M278.769 378.079C216.988 421.916 139.738 326.126 191.046 321.409C231.408 368.356 274.671 344.244 282.369 337.827C295.783 326.641 303.606 301.491 302.228 290.106C308.658 305.011 311.913 354.561 278.769 378.079Z" fill="url(#paint9_linear_4_1936)"/>
</g>
<path d="M185.164 374.465C168.181 366.309 153.023 354.898 143.164 341.264C114.363 301.458 123.334 258.9 133.864 210.021C143.828 163.819 142.548 126.873 141.548 109.862C147.108 117.444 149.674 137.198 150.532 149.057C155.561 218.586 98.1213 299.446 185.164 374.465Z" fill="#E42929"/>
<g opacity="0.63">
<path d="M120.252 110.393C82.445 85.1881 95.5322 71.6168 102.622 67.055C112.136 60.9337 137.049 56.6499 171.788 81.7788C171.788 81.7788 115.534 63.9907 104.683 81.1773C99.3401 89.6387 110.558 96.8219 120.252 110.393Z" fill="#FF192C"/>
</g>
<path d="M258.295 205.445C246.355 194.008 223.744 184.104 216.283 173.895C204.772 158.145 213.636 115.328 181.669 89.0166C181.669 89.0166 236.098 142.898 269.177 192.625C301.532 241.265 314.134 272.771 306.379 321.726C304.925 287.796 294.496 240.121 258.295 205.445Z" fill="#ED1121"/>
<path d="M297.872 243.676C266.337 185.884 207.731 134.035 206.775 133.192C203.87 120.39 199.008 106.936 188.505 95.4871C217.314 119.482 282.749 206.002 297.872 243.676Z" fill="#FF3C3C"/>
<path d="M290.624 368.048C327.713 317.886 309.688 250.936 272.764 198.12C257.561 176.374 242.595 156.431 228.844 139.427C210.011 116.14 193.453 98.3639 181.674 89.0156" stroke="#B20022" stroke-width="8.24" stroke-linecap="round" stroke-linejoin="round"/>
<path d="M141.882 138.314C142.74 144.982 143.824 163.818 133.866 210.021C123.332 258.899 114.361 301.455 143.16 341.263C171.959 381.07 250.862 408.928 290.101 368.297C302.479 355.481 327.675 276.832 258.256 204.661C245.056 190.938 222.654 184.758 216.119 173.56C207.764 159.239 212.353 114.976 181.669 89.0166C150.409 62.5704 119.577 58.0919 102.625 67.057C96.0202 70.5498 87.7267 82.2444 102.126 94.5972C117.337 107.646 139.99 123.615 141.882 138.314Z" stroke="#7F001E" stroke-width="8.24" stroke-linecap="round" stroke-linejoin="round"/>
<path d="M100.145 68.7122C94.3176 73.4491 89.5055 83.7697 102.126 94.5971C117.337 107.646 139.99 123.615 141.882 138.314C142.74 144.982 143.824 163.818 133.866 210.021C123.332 258.899 114.361 301.455 143.16 341.263C170.577 379.16 243.405 406.228 284.189 373.679" stroke="#68001E" stroke-width="8.24" stroke-linecap="round" stroke-linejoin="round"/>
<path d="M245.562 387.875C303.508 382.518 305.826 336.941 304.101 301.195" stroke="#68001E" stroke-width="8.24" stroke-linecap="round" stroke-linejoin="round"/>
<path d="M141.882 138.314C141.882 138.314 141.066 120.792 139.043 109.862" stroke="#68001E" stroke-width="8.24" stroke-linecap="round" stroke-linejoin="round"/>
<g opacity="0.4">
<path d="M142.209 339.911C140.724 319.142 146.502 296.243 145.512 271.295C144.92 256.4 148.553 229.721 154.523 232.945C156.679 234.109 157.858 284.499 191.561 318.32C214.661 341.501 229.236 374.901 216.919 380.451C202.834 386.799 161.883 371.961 142.209 339.911Z" fill="#7B0018"/>
</g>
<path d="M132.054 223.792C132.054 223.792 139.649 236.775 131.107 283.903C126.458 309.553 130.895 340.298 155.215 361.966C176.897 381.284 213.561 394.115 252.44 388.149C252.44 388.149 237.955 384.731 225.242 361.843C206.339 327.814 183.002 313.009 168.844 300.74C145.334 280.365 154.461 245.101 132.054 223.792Z" fill="url(#paint10_linear_4_1936)"/>
<g opacity="0.2">
<path d="M252.44 388.149C171.955 373.359 147.866 326.356 142.965 290.626C138.064 254.896 141.456 252.958 133.701 227.027" stroke="#236000" stroke-width="8.24" stroke-linecap="round" stroke-linejoin="round"/>
</g>
<g opacity="0.4">
<path d="M238.85 380.373C214.789 366.445 218.806 345.685 170.753 314.62C157.26 305.897 148.964 297.848 143.545 274.031C137.374 246.904 132.94 228.208 132.732 227.754C155.029 241.083 145.331 280.363 168.843 300.744C182.997 313.006 204.4 323.65 225.244 361.847C230.249 371.005 234.521 376.316 238.85 380.373Z" fill="#CAFF55"/>
</g>
<path d="M132.054 223.792C132.054 223.792 139.649 236.775 131.107 283.903C126.458 309.553 130.895 340.298 155.215 361.966C176.897 381.284 213.561 394.115 252.44 388.149C252.44 388.149 237.955 384.731 225.242 361.843C206.339 327.814 183.002 313.009 168.844 300.74C145.334 280.365 154.461 245.101 132.054 223.792Z" stroke="#539035" stroke-width="8.24" stroke-linecap="round" stroke-linejoin="round"/>
<path d="M132.054 223.792C132.054 223.792 139.649 236.775 131.107 283.903C126.458 309.553 130.895 340.298 155.215 361.966C176.517 380.945 212.278 393.663 250.395 388.445" stroke="#356A17" stroke-width="8.24" stroke-linecap="round" stroke-linejoin="round"/>
<path d="M254.5 387.118C254.5 387.118 273.207 386.245 297.916 364.007C322.624 341.769 367.01 310.042 446.076 342.32C446.076 342.32 416.337 328.31 376.791 339.386C337.245 350.461 326.485 402.348 254.5 387.118Z" fill="url(#paint11_linear_4_1936)"/>
<g opacity="0.4">
<path d="M376.789 339.386C339.122 349.945 327.569 397.518 264.327 388.841C264.327 388.841 292.958 391.321 322.479 366.048C352 340.776 373.376 317.353 437.94 339.291C422.889 335.963 405.239 331.419 376.789 339.386Z" fill="#CAFF55"/>
</g>
<path d="M254.5 387.118C254.5 387.118 273.207 386.245 297.916 364.007C322.624 341.769 367.01 310.042 446.076 342.32C446.076 342.32 416.337 328.31 376.791 339.386C337.245 350.461 326.485 402.348 254.5 387.118Z" stroke="#448921" stroke-width="8.24" stroke-linecap="round" stroke-linejoin="round"/>
<path d="M445.38 342.037C445.611 342.131 445.843 342.226 446.076 342.32C446.076 342.32 416.337 328.31 376.791 339.386C337.245 350.461 326.485 402.348 254.5 387.118" stroke="#78CC00" stroke-width="8.24" stroke-linecap="round" stroke-linejoin="round"/>
<path d="M273.895 389.759C267.956 389.45 261.519 388.603 254.5 387.118" stroke="#366A18" stroke-width="8.24" stroke-linecap="round" stroke-linejoin="round"/>
</g>
</g>
<defs>
<linearGradient id="paint0_linear_4_1936" x1="256.833" y1="437.692" x2="256.833" y2="392.775" gradientUnits="userSpaceOnUse">
<stop stop-color="#AFFF15"/>
<stop offset="0.58" stop-color="#75C618"/>
<stop offset="0.99" stop-color="#3B8D1C"/>
</linearGradient>
<radialGradient id="paint1_radial_4_1936" cx="0" cy="0" r="1" gradientUnits="userSpaceOnUse" gradientTransform="translate(364.726 76.1617) scale(197.5)">
<stop stop-color="#FF0019"/>
<stop offset="0.5" stop-color="#DA0013"/>
<stop offset="1" stop-color="#B4000C"/>
</radialGradient>
<linearGradient id="paint2_linear_4_1936" x1="291.278" y1="163.772" x2="315.998" y2="184.372" gradientUnits="userSpaceOnUse">
<stop stop-color="#B30008"/>
<stop offset="0.5" stop-color="#950010"/>
<stop offset="1" stop-color="#770017"/>
</linearGradient>
<linearGradient id="paint3_linear_4_1936" x1="375.737" y1="67.9825" x2="328.357" y2="115.362" gradientUnits="userSpaceOnUse">
<stop stop-color="white"/>
<stop offset="0.5" stop-color="white" stop-opacity="0.5"/>
<stop offset="1" stop-color="white" stop-opacity="0"/>
</linearGradient>
<linearGradient id="paint4_linear_4_1936" x1="366.468" y1="201.882" x2="303.638" y2="328.572" gradientUnits="userSpaceOnUse">
<stop stop-color="#FF4952"/>
<stop offset="0.37" stop-color="#F9313D"/>
<stop offset="0.75" stop-color="#F31A2A"/>
</linearGradient>
<linearGradient id="paint5_linear_4_1936" x1="405.608" y1="67.9819" x2="385.871" y2="310.856" gradientUnits="userSpaceOnUse">
<stop offset="0.25" stop-color="white"/>
<stop offset="0.63" stop-color="white" stop-opacity="0.5"/>
<stop offset="1" stop-color="white" stop-opacity="0"/>
</linearGradient>
<linearGradient id="paint6_linear_4_1936" x1="405.608" y1="67.9819" x2="385.871" y2="310.856" gradientUnits="userSpaceOnUse">
<stop stop-color="white"/>
<stop offset="0.5" stop-color="white"/>
<stop offset="1" stop-color="white"/>
</linearGradient>
<radialGradient id="paint7_radial_4_1936" cx="0" cy="0" r="1" gradientUnits="userSpaceOnUse" gradientTransform="translate(341.128 292.549) scale(62.3299)">
<stop offset="0.31" stop-color="#BB0217"/>
<stop offset="0.5" stop-color="#9B0118"/>
<stop offset="0.69" stop-color="#7B0018"/>
</radialGradient>
<radialGradient id="paint8_radial_4_1936" cx="0" cy="0" r="1" gradientUnits="userSpaceOnUse" gradientTransform="translate(279.236 248.171) scale(185.512 185.512)">
<stop stop-color="#F03446"/>
<stop offset="0.25" stop-color="#EC2A35"/>
<stop offset="0.48" stop-color="#E82024"/>
<stop offset="0.76" stop-color="#CE1C1A"/>
<stop offset="1" stop-color="#B31710"/>
</radialGradient>
<linearGradient id="paint9_linear_4_1936" x1="255.998" y1="332.071" x2="273.946" y2="378.126" gradientUnits="userSpaceOnUse">
<stop stop-color="#B71818"/>
<stop offset="0.5" stop-color="#930C17"/>
<stop offset="1" stop-color="#700016"/>
</linearGradient>
<linearGradient id="paint10_linear_4_1936" x1="192.715" y1="238.902" x2="191.181" y2="344.012" gradientUnits="userSpaceOnUse">
<stop stop-color="#ADD34A"/>
<stop offset="0.62" stop-color="#78B53B"/>
<stop offset="0.99" stop-color="#44962D"/>
</linearGradient>
<linearGradient id="paint11_linear_4_1936" x1="353.395" y1="366.621" x2="324.615" y2="337.841" gradientUnits="userSpaceOnUse">
<stop stop-color="#CBF360"/>
<stop offset="0.62" stop-color="#87C547"/>
<stop offset="0.99" stop-color="#44962D"/>
</linearGradient>
<clipPath id="clip0_4_1936">
<rect width="512" height="512" fill="white"/>
</clipPath>
</defs>
</svg>
