<svg width="14" height="15" viewBox="0 0 14 15" fill="none" xmlns="http://www.w3.org/2000/svg">
<g clip-path="url(#clip0_0_1)">
<path d="M6.43018 1.36914C6.56049 1.05456 6.92124 0.904924 7.23584 1.03516C7.38691 1.09774 7.50724 1.21806 7.56982 1.36914L8.98584 4.78809C9.09617 5.05444 9.34688 5.23619 9.63428 5.25879L13.3267 5.54785C13.666 5.57457 13.9196 5.87151 13.8931 6.21094C13.8803 6.37417 13.8028 6.52558 13.6782 6.63184L10.8628 9.03223C10.643 9.21952 10.5473 9.51428 10.6147 9.79492L11.48 13.3906C11.5597 13.7218 11.3559 14.0551 11.0249 14.1348C10.8659 14.173 10.6985 14.146 10.5591 14.0605L7.40088 12.126C7.15512 11.9755 6.84487 11.9755 6.59912 12.126L3.46729 14.0449C3.17688 14.2228 2.79654 14.1322 2.61865 13.8418C2.53176 13.6999 2.50641 13.5284 2.54736 13.3672L3.03174 11.459C3.20127 10.7917 3.6582 10.2337 4.27881 9.93555L7.69678 8.29492C7.89341 8.20049 7.97576 7.96423 7.88135 7.76758C7.80483 7.60853 7.63243 7.51974 7.4585 7.5498L3.65479 8.20801C2.90327 8.33811 2.13194 8.1305 1.54736 7.64062L0.346191 6.63379C0.0851705 6.41504 0.0503016 6.02566 0.269043 5.76465C0.375429 5.63773 0.528745 5.55881 0.693848 5.5459L4.36572 5.25879C4.6531 5.23618 4.90382 5.05442 5.01416 4.78809L6.43018 1.36914Z" fill="#FFC115" stroke="#AA6E0D" stroke-width="0.15"/>
</g>
<defs>
<clipPath id="clip0_0_1">
<rect width="14" height="15" fill="white"/>
</clipPath>
</defs>
</svg>
